<?xml version="1.0" encoding="UTF-8"?>
<!DOCTYPE svg PUBLIC "-//W3C//DTD SVG 1.1//EN" "http://www.w3.org/Graphics/SVG/1.1/DTD/svg11.dtd">
<!-- Creator: CorelDRAW -->
<svg xmlns="http://www.w3.org/2000/svg" xml:space="preserve" width="0.0533346in" height="0.0533346in" version="1.1" style="shape-rendering:geometricPrecision; text-rendering:geometricPrecision; image-rendering:optimizeQuality; fill-rule:evenodd; clip-rule:evenodd"
viewBox="0 0 4.06 4.06"
 xmlns:xlink="http://www.w3.org/1999/xlink"
 xmlns:xodm="http://www.corel.com/coreldraw/odm/2003">
 <defs>
  <style type="text/css">
   <![CDATA[
    .fil1 {fill:none}
    .fil0 {fill:#0777AB}
   ]]>
  </style>
 </defs>
 <g id="Layer_x0020_1">
  <metadata id="CorelCorpID_0Corel-Layer"/>
  <g id="_3003481041504">
   <g>
    <path class="fil0" d="M1.04 2.24c0.09,-0.03 0.05,-0.31 0.04,-0.4 -0.13,-0 -0.34,0.03 -0.45,-0.02 -0.1,-0.04 -0.13,-0.25 -0.06,-0.34 0.15,-0.2 0.7,0.09 0.71,-0.26 0.01,-0.29 -0.29,-0.2 -0.49,-0.2 -0.09,0.01 -0.18,0.01 -0.26,0l-0.07 0c-0.32,0 -0.32,-0.49 0,-0.49 0.29,0 0.67,0.01 1.05,0 0.93,-0.02 1.68,-0.02 2.06,0.43 0.65,0.56 0.63,1.61 -0,2.18 -0.42,0.37 -0.93,0.48 -1.44,0.33l0.02 -0.56 0.01 0 0.01 0 0 0 0.01 0 0 0 0.02 0.01 0.01 0 0.01 0 0.01 0 0.01 0 0.01 0 0 0 0.01 0 0.01 0 0.01 0 0.01 0 0.01 0 0.01 0 0.01 0 0.01 0 0.01 0 0.01 0 0.01 0 0.01 0c0.01,0 0.01,0 0.02,0l0 0 0.02 0 0 0 0 0 0 0c0.01,0 0.01,0 0.02,0l0 0 0.02 0 0 0c0.01,0 0.01,0 0.02,0l0 0c0.01,0 0.01,0 0.02,0l0 0 0 0c0.01,0 0.01,0 0.02,0l0 0c0.01,0 0.01,0 0.02,0l0 0 0 0c0.01,0 0.02,0 0.02,0 0.52,0 0.94,-0.42 0.94,-0.94 0,-0.52 -0.42,-0.94 -0.94,-0.94 -0.01,0 -0.02,0 -0.02,0l-0 0c-0.01,0 -0.02,0 -0.02,0 -0.49,0.02 -0.87,0.41 -0.89,0.89l0 0c-0,0.01 -0,0.02 -0,0.02l0 0c-0.01,0.38 0.02,0.75 0.01,1.14 -0.16,-0.04 -0.33,-0.34 -0.4,-0.48 -0.05,-0 -0.1,0 -0.15,0l-0.07 0c-0.12,0 -0.22,-0.1 -0.22,-0.22l0 0c0,-0.08 0.06,-0.19 0.15,-0.21 0.04,-0.01 0.08,-0.01 0.12,-0.02zm-0.93 -0.43c0.05,0.03 0.1,0.04 0.16,0.04 0.25,-0.02 0.25,-0.41 -0,-0.43 -0.26,-0.02 -0.34,0.27 -0.16,0.39z"/>
    <circle class="fil0" cx="2.55" cy="2.05" r="0.42"/>
   </g>
   <rect class="fil1" x="-0" y="0" width="4.06" height="4.06"/>
  </g>
 </g>
</svg>
