<svg width="554" height="404" viewBox="0 0 554 404" fill="none" xmlns="http://www.w3.org/2000/svg">
<g clip-path="url(#clip0_299_466)">
<path d="M379.142 46.976H283.999V52.4351H379.142V46.976Z" fill="#EBEBEB"/>
<path d="M355.385 52.4999L358.727 59.8501H362.664L365.53 52.4999H355.385Z" fill="#EBEBEB"/>
<path d="M300.345 52.4999L303.686 59.8501H307.627L310.493 52.4999H300.345Z" fill="#EBEBEB"/>
<path d="M485.014 247.003L485.014 0.00170898L384.323 0.00170898L384.323 247.003L485.014 247.003Z" fill="#E0E0E0"/>
<path d="M479.486 5.53827H389.854V241.466H479.486V5.53827Z" fill="#663333"/>
<path d="M439.535 0.00134277H432.865V247.002H439.535V0.00134277Z" fill="#E0E0E0"/>
<path d="M251.489 247.002L251.489 0.00146484L150.799 0.00146484L150.799 247.002L251.489 247.002Z" fill="#E0E0E0"/>
<path d="M245.962 5.53827H156.329V241.466H245.962V5.53827Z" fill="#663333"/>
<path d="M206.014 0.00134277H199.34V247.002H206.014V0.00134277Z" fill="#E0E0E0"/>
<path d="M365.53 32.6261L361.443 46.9144H350.44L346.354 32.6261H365.53Z" fill="#E6E6E6"/>
<path d="M356.185 23.7871C356.185 23.7871 346.173 19.074 346.114 11.0655C346.114 11.0655 355.615 14.8216 356.185 23.7871Z" fill="#33CC66"/>
<path d="M355.942 29.6646C355.942 29.6646 366.164 25.4219 366.595 17.4263C366.595 17.4263 356.929 20.7348 355.942 29.6646Z" fill="#33CC66"/>
<path d="M354.116 15.3146C354.116 15.3146 363.305 9.1452 362.159 1.22095C362.159 1.22095 353.332 6.36539 354.116 15.3146Z" fill="#33CC66"/>
<path d="M355.935 33.317L354.831 33.0834C357.697 19.3757 349.084 1.00365 348.996 0.818763L350.013 0.332214C350.379 1.09772 358.879 19.2298 355.932 33.3137L355.935 33.317Z" fill="#003333"/>
<path d="M337.715 46.976H315.557L311.39 25.117H333.544L337.715 46.976Z" fill="#F0F0F0"/>
<path d="M334.169 44.0372H317.982L317.037 39.1101L314.929 28.0492H331.122L332.159 33.4856L334.169 44.0372Z" fill="#FAFAFA"/>
<path d="M321.868 33.9105C322.778 33.9105 323.516 33.1713 323.516 32.2595C323.516 31.3477 322.778 30.6085 321.868 30.6085C320.958 30.6085 320.22 31.3477 320.22 32.2595C320.22 33.1713 320.958 33.9105 321.868 33.9105Z" fill="#E0E0E0"/>
<path d="M334.169 44.0372H317.982L317.034 39.1069C317.535 37.8289 319.556 36.872 320.705 36.8493C324.005 36.7909 326.929 39.2074 328.697 36.0448C329.286 34.9907 330.601 34.1473 332.152 33.4824L334.163 44.034L334.169 44.0372Z" fill="#E0E0E0"/>
<path d="M311.39 25.117L305.516 46.9241H309.91H315.557L311.39 25.117Z" fill="#E0E0E0"/>
<path d="M113.149 53.0964C124.522 48.2796 129.843 35.1394 125.035 23.7468C120.226 12.3543 107.109 7.0236 95.7359 11.8404C84.3631 16.6572 79.0416 29.7974 83.8501 41.19C88.6585 52.5825 101.776 57.9132 113.149 53.0964Z" fill="#E0E0E0"/>
<path d="M112.341 51.5334C122.85 47.1725 127.841 35.1025 123.488 24.5745C119.134 14.0464 107.085 9.04703 96.5754 13.408C86.0656 17.7689 81.0749 29.8389 85.4283 40.3669C89.7817 50.895 101.831 55.8944 112.341 51.5334Z" fill="#0777AB"/>
<path d="M104.508 13.7123H103.737V18.0166H104.508V13.7123Z" fill="#E0E0E0"/>
<path d="M104.508 46.8138H103.737V51.1181H104.508V46.8138Z" fill="#E0E0E0"/>
<path d="M89.7489 32.0292H85.452V32.8012H89.7489V32.0292Z" fill="#E0E0E0"/>
<path d="M122.796 32.0292H118.499V32.8012H122.796V32.0292Z" fill="#E0E0E0"/>
<path d="M117.052 18.9087L114.014 21.9528L114.559 22.4986L117.597 19.4545L117.052 18.9087Z" fill="#E0E0E0"/>
<path d="M93.6976 42.323L90.6597 45.3674L91.2048 45.9132L94.2426 42.8688L93.6976 42.323Z" fill="#E0E0E0"/>
<path d="M91.1932 18.9112L90.6484 19.4572L93.6871 22.5003L94.232 21.9544L91.1932 18.9112Z" fill="#E0E0E0"/>
<path d="M114.558 42.3312L114.013 42.877L117.051 45.921L117.596 45.3752L114.558 42.3312Z" fill="#E0E0E0"/>
<path d="M103.988 31.9056L103.746 32.5213L111.031 35.395L111.273 34.7793L103.988 31.9056Z" fill="#E0E0E0"/>
<path d="M104.453 32.7461H92.4396V32.0844H103.792V22.7426H104.453V32.7461Z" fill="#E0E0E0"/>
<path d="M554 358.672H0V358.948H554V358.672Z" fill="#E0E0E0"/>
<path d="M282.218 403.999C413.833 403.999 520.528 400.932 520.528 397.148C520.528 393.365 413.833 390.298 282.218 390.298C150.603 390.298 43.9078 393.365 43.9078 397.148C43.9078 400.932 150.603 403.999 282.218 403.999Z" fill="#4D4D4D"/>
<path d="M77.9882 170.228C71.36 174.387 67.8629 181.747 68.7857 189.178C71.2434 208.925 77.4734 256.364 81.4853 263.526C86.5755 272.608 156.695 267.175 160.332 258.897C163.971 250.619 154.296 170.141 148.186 163.54C143.105 158.045 99.9681 156.433 77.9882 170.228Z" fill="black"/>
<path d="M77.9882 170.228C71.36 174.387 67.8629 181.747 68.7857 189.178C71.2434 208.925 77.4734 256.364 81.4853 263.526C86.5755 272.608 156.695 267.175 160.332 258.897C163.971 250.619 154.296 170.141 148.186 163.54C143.105 158.045 99.9681 156.433 77.9882 170.228Z" fill="white" fill-opacity="0.6"/>
<path d="M86.2259 265.368C86.132 264.826 76.787 210.82 75.7508 191.118C74.6952 171.065 84.7882 166.508 85.2188 166.323L85.656 167.345C85.5588 167.387 75.8447 171.844 76.8582 191.062C77.8911 210.7 87.2232 264.642 87.3171 265.183L86.2259 265.371V265.368Z" fill="white" fill-opacity="0.501961"/>
<path d="M127.498 293.75H121.294V382.036H127.498V293.75Z" fill="black"/>
<path d="M121.294 382.036H127.498V293.75H121.294V382.036Z" fill="white" fill-opacity="0.501961"/>
<path d="M80.8054 383.376H75.8414V380.855C75.8414 371.666 83.3051 364.193 92.4753 364.193H118.655V369.165H92.4753C86.0413 369.165 80.8021 374.41 80.8021 380.858V383.379L80.8054 383.376Z" fill="black"/>
<path d="M80.8054 383.376H75.8414V380.855C75.8414 371.666 83.3051 364.193 92.4753 364.193H118.655V369.165H92.4753C86.0413 369.165 80.8021 374.41 80.8021 380.858V383.379L80.8054 383.376Z" fill="white" fill-opacity="0.6"/>
<path d="M86.542 390.245C87.6162 385.687 84.7991 381.121 80.2497 380.045C75.7003 378.968 71.1415 381.79 70.0672 386.348C68.993 390.905 71.8101 395.472 76.3595 396.548C80.9089 397.624 85.4678 394.802 86.542 390.245Z" fill="black"/>
<path d="M80.2484 380.044C75.699 378.967 71.1398 381.789 70.0648 386.347C68.9898 390.904 71.8069 395.471 76.3595 396.548C80.909 397.625 85.4682 394.803 86.5432 390.246C87.6182 385.688 84.8011 381.121 80.2517 380.044H80.2484Z" fill="white" fill-opacity="0.160784"/>
<path d="M82.5895 388.27C82.5895 385.912 80.679 383.998 78.325 383.998C75.9709 383.998 74.0605 385.912 74.0605 388.27C74.0605 390.628 75.9709 392.542 78.325 392.542C80.679 392.542 82.5895 390.628 82.5895 388.27Z" fill="white" fill-opacity="0.501961"/>
<path d="M130.376 394.266C133.682 390.954 133.682 385.586 130.376 382.275C127.071 378.964 121.711 378.964 118.406 382.275C115.101 385.586 115.101 390.954 118.406 394.266C121.711 397.577 127.071 397.577 130.376 394.266Z" fill="black"/>
<path d="M130.377 382.273C127.07 378.961 121.712 378.961 118.405 382.273C115.099 385.584 115.099 390.953 118.405 394.264C121.712 397.576 127.07 397.576 130.377 394.264C133.683 390.953 133.683 385.584 130.377 382.273Z" fill="white" fill-opacity="0.4"/>
<path d="M128.66 388.27C128.66 385.912 126.75 383.998 124.396 383.998C122.042 383.998 120.131 385.912 120.131 388.27C120.131 390.628 122.042 392.542 124.396 392.542C126.75 392.542 128.66 390.628 128.66 388.27Z" fill="white" fill-opacity="0.501961"/>
<path d="M172.309 383.376H167.345V380.855C167.345 374.407 162.109 369.162 155.672 369.162H129.493V364.189H155.672C164.846 364.189 172.306 371.666 172.306 380.852V383.372L172.309 383.376Z" fill="black"/>
<path d="M172.309 383.376H167.345V380.855C167.345 374.407 162.109 369.162 155.672 369.162H129.493V364.189H155.672C164.846 364.189 172.306 371.666 172.306 380.852V383.372L172.309 383.376Z" fill="white" fill-opacity="0.6"/>
<path d="M175.963 394.121C179.194 390.737 179.075 385.37 175.696 382.133C172.318 378.896 166.96 379.016 163.729 382.4C160.498 385.784 160.617 391.151 163.996 394.388C167.374 397.625 172.732 397.505 175.963 394.121Z" fill="black"/>
<path d="M175.696 382.133C172.319 378.896 166.96 379.016 163.728 382.399C160.497 385.786 160.617 391.151 163.994 394.388C167.371 397.625 172.73 397.505 175.962 394.122C179.193 390.739 179.073 385.37 175.696 382.133Z" fill="white" fill-opacity="0.4"/>
<path d="M165.561 388.27C165.561 390.628 167.472 392.542 169.826 392.542C172.18 392.542 174.09 390.628 174.09 388.27C174.09 385.912 172.18 383.998 169.826 383.998C167.468 383.998 165.561 385.912 165.561 388.27Z" fill="white" fill-opacity="0.501961"/>
<path d="M130.134 358.866H118.655V375.72H130.134V358.866Z" fill="black"/>
<path d="M118.655 375.72H130.137V358.866H118.655V375.72Z" fill="white" fill-opacity="0.6"/>
<path d="M130.134 292.803H118.655V309.657H130.134V292.803Z" fill="black"/>
<path d="M118.655 309.66H130.137V292.803H118.655V309.66Z" fill="white" fill-opacity="0.6"/>
<path d="M164.35 263.886C164.35 263.886 168.553 264.544 179.109 266.335C182.626 266.932 186.077 267.493 189.115 267.979C195.167 268.946 199.609 274.175 199.609 280.312C199.609 287.211 194.027 292.803 187.139 292.803H101.558C92.9059 292.803 85.154 287.101 82.923 278.725C81.8933 274.866 81.304 270 81.5598 263.886H164.35Z" fill="black"/>
<path d="M164.35 263.886C164.35 263.886 168.553 264.544 179.109 266.335C182.626 266.932 186.077 267.493 189.115 267.979C195.167 268.946 199.609 274.175 199.609 280.312C199.609 287.211 194.027 292.803 187.139 292.803H101.558C92.9059 292.803 85.154 287.101 82.923 278.725C81.8933 274.866 81.304 270 81.5598 263.886H164.35Z" fill="white" fill-opacity="0.501961"/>
<path d="M146.78 167.838C151.158 174.361 155.39 181.221 159.558 187.893C161.688 191.208 163.712 194.579 165.862 197.754C166.911 199.36 167.97 200.933 169.023 202.428C170.059 203.93 171.137 205.357 172.079 206.512L173.167 207.803C173.193 207.842 173.232 207.897 173.18 207.881C173.209 207.923 172.963 207.796 172.963 207.826C172.989 207.848 173.015 207.881 173.038 207.923L173.358 208.105C173.851 208.371 174.599 208.672 175.389 208.954C176.185 209.237 177.043 209.522 177.924 209.804C181.47 210.933 185.336 211.848 189.186 212.85C196.925 214.767 204.861 216.613 212.733 218.747L212.186 226.198C203.89 227.073 195.675 227.352 187.324 227.206C183.134 227.155 178.967 226.908 174.56 226.438C173.455 226.318 172.329 226.168 171.16 225.961C169.984 225.757 168.773 225.513 167.355 225.108L166.248 224.764C165.807 224.599 165.367 224.423 164.933 224.242C164.48 224.044 163.783 223.681 163.392 223.441C162.909 223.162 162.54 222.915 162.151 222.656C160.701 221.657 159.678 220.774 158.693 219.905C156.776 218.179 155.212 216.515 153.697 214.861C152.198 213.2 150.799 211.54 149.442 209.876C146.784 206.509 144.203 203.187 141.826 199.749C137.002 192.898 132.611 185.993 128.664 178.571L146.784 167.831L146.78 167.838Z" fill="#0777AB"/>
<path d="M148.166 175.509L143.228 174.695C143.228 174.695 140.774 186.473 138.834 195.393C139.815 196.849 140.806 198.305 141.826 199.752C144.203 203.19 146.784 206.512 149.442 209.879C150.799 211.543 152.201 213.204 153.697 214.864C155.212 216.519 156.776 218.179 158.693 219.908C159.678 220.778 160.701 221.66 162.151 222.659C162.537 222.915 162.906 223.162 163.392 223.444C163.783 223.684 164.48 224.047 164.933 224.245C165.37 224.43 165.807 224.605 166.248 224.767L167.355 225.111C168.777 225.52 169.984 225.76 171.16 225.964C172.329 226.172 173.456 226.321 174.56 226.441C178.899 226.905 183.004 227.148 187.133 227.206L187.819 227.213C188.545 227.223 189.267 227.216 189.989 227.223C185.938 227.064 173.575 225.932 164.457 218.247C153.406 208.932 148.166 175.516 148.166 175.516V175.509Z" fill="black" fill-opacity="0.2"/>
<path d="M116.965 158.045C116.965 158.045 94.7484 160.225 91.7176 171.792C89.5999 179.882 90.228 227.297 105.576 255.945C109.919 264.048 166.61 250.11 164.392 244.716C158.175 229.594 143.588 193.495 148.163 175.512C151.369 162.911 127.501 158.516 127.501 158.516L116.965 158.048V158.045Z" fill="#0777AB"/>
<path d="M111 186.19C111 186.19 108.646 197.514 112.81 203.661C116.978 209.807 126.232 212.435 131.639 213.161C137.047 213.888 106.561 213.878 106.561 213.878L101.859 192.113L110.997 186.19H111Z" fill="black" fill-opacity="0.2"/>
<path d="M108.5 253.149C104.084 247.223 97.1122 213.654 96.8175 212.227L97.3583 212.114C97.4295 212.461 104.599 246.99 108.944 252.815L108.5 253.146V253.149Z" fill="white" fill-opacity="0.2"/>
<path d="M94.6965 223.201C94.6965 223.201 98.6113 235.559 113.973 236.474C129.337 237.392 158.402 229.24 158.402 229.24L157.673 227.035L94.6965 223.197V223.201Z" fill="black" fill-opacity="0.2"/>
<path d="M121.763 176.768L125.124 227.677L134.392 235.653L139.132 224.154C139.132 224.154 128.366 193.168 125.575 174.695L121.763 176.768Z" fill="#263238"/>
<path d="M137.607 117.169C137.607 117.169 141.486 120.049 138.161 126.39L133.615 117L137.607 117.165V117.169Z" fill="#263238"/>
<path d="M109.19 129.29C109.19 129.29 104.31 124.937 104.738 123.075C105.243 120.879 107.752 121.509 107.752 121.509C107.752 121.509 106.467 112.871 108.513 110.931C110.194 109.338 112.739 112.002 112.739 112.002C112.739 112.002 118.36 103.656 121.841 103.802C125.322 103.944 123.502 106.854 123.502 106.854C123.502 106.854 132.397 100.405 135.434 101.638C138.472 102.871 136.717 106.208 136.717 106.208C136.717 106.208 143.251 100.428 145.058 103.999C146.868 107.567 139.067 113.095 139.067 113.095C139.067 113.095 143.452 114.071 141.545 116.977C139.637 119.88 136.755 118.515 136.755 118.515L109.193 129.29H109.19Z" fill="#263238"/>
<path d="M127.974 161.338C126.999 162.638 125.05 164.195 121.174 164.721C116.285 165.382 113.312 162.249 111.78 160.595C113.166 153.605 113.202 144.029 112.001 137.678L127.631 150.718C126.546 154.461 125.995 158.37 127.971 161.338H127.974Z" fill="#FF8B7B"/>
<path d="M118.376 142.995L127.624 150.708C127.206 152.132 126.876 153.575 126.74 154.983C123.204 154.422 118.823 151.532 117.496 147.86C116.67 145.577 117.453 143.235 118.373 142.995H118.376Z" fill="black" fill-opacity="0.2"/>
<path d="M109.413 125.875C108.75 115.411 118.975 107.48 129.062 111.564C139.297 115.706 140.761 131.24 138.536 140.646C136.066 151.101 123.182 155.921 115.226 147.86C109.935 142.502 110.077 136.342 109.413 125.878V125.875Z" fill="#FF8B7B"/>
<path d="M127.757 131.947C127.589 131.947 127.427 131.843 127.365 131.671C127.1 130.938 126.692 130.497 126.148 130.354C125.494 130.182 124.827 130.481 124.668 130.594C124.564 130.737 124.373 130.799 124.198 130.737C123.981 130.659 123.868 130.422 123.943 130.205C124.085 129.799 125.031 129.472 125.717 129.469C126.394 129.439 127.54 129.712 128.146 131.389C128.223 131.606 128.113 131.843 127.896 131.921C127.851 131.937 127.802 131.947 127.757 131.947Z" fill="#263238"/>
<path d="M134.256 132.115C134.223 132.115 134.188 132.112 134.155 132.102C133.932 132.047 133.796 131.82 133.854 131.596C134.24 130.056 135.204 129.761 135.745 129.725C136.454 129.679 137.348 130.023 137.503 130.4C137.591 130.614 137.487 130.857 137.274 130.941C137.095 131.013 136.898 130.954 136.788 130.808C136.655 130.714 136.066 130.438 135.541 130.601C135.124 130.734 134.826 131.136 134.66 131.798C134.615 131.986 134.444 132.112 134.259 132.112L134.256 132.115Z" fill="#263238"/>
<path d="M134.806 140.51C134.379 141.486 133.33 143.235 131.141 143.608C130.778 143.689 130.376 143.708 129.943 143.686C127.805 143.572 126.617 142.489 125.944 141.285C125.461 140.419 125.251 139.498 125.16 138.856C125.111 138.496 125.471 138.214 125.804 138.353C125.824 138.366 125.846 138.366 125.869 138.382C127.194 138.908 130.124 139.858 134.353 139.848C134.476 139.848 134.592 139.89 134.677 139.975C134.835 140.092 134.894 140.306 134.809 140.51H134.806Z" fill="#263238"/>
<path d="M131.141 143.608C130.778 143.689 130.377 143.708 129.943 143.686C127.806 143.572 126.617 142.489 125.944 141.285C126.844 141.172 128.359 141.113 129.684 141.636C130.901 142.119 131.147 142.998 131.141 143.608Z" fill="#FF5652"/>
<path d="M134.673 139.975C134.605 140.124 134.502 140.283 134.356 140.439C133.517 141.305 126.753 139.894 126.261 139.504C125.97 139.281 125.892 138.758 125.866 138.379C127.19 138.904 130.121 139.855 134.35 139.845C134.473 139.845 134.589 139.89 134.673 139.975Z" fill="white"/>
<path d="M109.235 128.171C109.261 128.664 111.525 132.706 114.368 131.885C117.207 131.064 115.446 123.322 115.446 123.322C115.446 123.322 120.931 123.86 119.338 119.193C119.338 119.193 123.47 122.122 127.822 118.126C127.822 118.126 134.375 122.177 137.555 119.734C137.555 119.734 137.941 110.448 127.433 108.051C121.546 106.708 108.39 111.337 109.235 128.168V128.171Z" fill="#263238"/>
<path d="M104.948 134.62C105.725 137.338 107.681 139.443 109.728 140.539C112.804 142.184 115.096 139.612 114.87 136.306C114.666 133.332 112.82 128.891 109.43 128.609C106.088 128.33 104.061 131.512 104.948 134.62Z" fill="#FF8B7B"/>
<path d="M137.72 127.101C137.575 127.101 137.435 127.026 137.358 126.89C137.018 126.287 136.581 125.907 136.066 125.771C135.217 125.544 134.385 126.027 134.379 126.03C134.181 126.15 133.925 126.082 133.809 125.888C133.692 125.69 133.754 125.434 133.951 125.317C133.997 125.291 135.081 124.649 136.279 124.963C137.021 125.158 137.627 125.667 138.083 126.475C138.196 126.676 138.125 126.929 137.924 127.042C137.86 127.081 137.792 127.098 137.72 127.098V127.101Z" fill="#263238"/>
<path d="M123.224 127.425C123.162 127.425 123.101 127.412 123.042 127.383C122.835 127.282 122.751 127.036 122.851 126.828C122.874 126.78 123.434 125.648 124.606 125.255C125.335 125.015 126.118 125.106 126.944 125.534C127.148 125.638 127.229 125.891 127.122 126.095C127.019 126.3 126.766 126.381 126.562 126.274C125.947 125.956 125.38 125.878 124.875 126.043C124.036 126.319 123.603 127.182 123.596 127.192C123.522 127.341 123.376 127.425 123.22 127.425H123.224Z" fill="#263238"/>
<path d="M126.047 134.519C126.028 134.519 126.008 134.519 125.992 134.519C123.813 134.487 122.064 132.686 122.094 130.503C122.123 128.337 123.894 126.598 126.047 126.598C126.067 126.598 126.086 126.598 126.102 126.598C127.158 126.614 128.146 127.039 128.881 127.798C129.616 128.557 130.014 129.556 130.001 130.614C129.988 131.671 129.561 132.66 128.803 133.397C128.061 134.12 127.083 134.519 126.051 134.519H126.047ZM126.047 127.153C124.195 127.153 122.673 128.651 122.647 130.51C122.621 132.388 124.127 133.935 125.999 133.964C126.015 133.964 126.031 133.964 126.047 133.964C126.938 133.964 127.776 133.624 128.418 133.001C129.068 132.368 129.434 131.519 129.447 130.607C129.473 128.729 127.971 127.182 126.096 127.153C126.08 127.153 126.063 127.153 126.047 127.153Z" fill="white"/>
<path d="M136.218 133.981C136.199 133.981 136.179 133.981 136.16 133.981C135.104 133.968 134.116 133.539 133.381 132.78C132.646 132.021 132.248 131.022 132.261 129.965C132.29 127.798 134.058 126.06 136.215 126.06C136.234 126.06 136.254 126.06 136.27 126.06C137.325 126.073 138.313 126.501 139.048 127.26C139.783 128.019 140.181 129.018 140.168 130.075C140.152 131.133 139.728 132.122 138.97 132.858C138.229 133.582 137.251 133.981 136.218 133.981ZM136.215 126.614C134.363 126.614 132.841 128.113 132.815 129.971C132.802 130.883 133.145 131.742 133.776 132.394C134.408 133.046 135.256 133.413 136.166 133.426C137.057 133.426 137.931 133.095 138.585 132.463C139.236 131.83 139.602 130.98 139.615 130.069C139.628 129.157 139.284 128.298 138.653 127.646C138.022 126.994 137.173 126.627 136.263 126.614C136.247 126.614 136.231 126.614 136.215 126.614Z" fill="white"/>
<path d="M131.089 129.595C131.089 129.595 133.006 132.644 135.143 134.438C137.28 136.232 131.785 137.48 131.785 137.48L131.092 129.595H131.089Z" fill="#FF5652"/>
<path d="M132.54 130.247C132.488 130.247 132.436 130.234 132.391 130.202C130.963 129.284 129.888 130.111 129.842 130.147C129.722 130.241 129.548 130.224 129.454 130.101C129.36 129.981 129.376 129.809 129.496 129.712C129.509 129.699 130.914 128.596 132.689 129.735C132.818 129.816 132.854 129.988 132.773 130.117C132.721 130.198 132.63 130.244 132.54 130.244V130.247Z" fill="white"/>
<path d="M122.382 130.104C122.317 130.104 122.256 130.085 122.204 130.04C122.039 129.903 118.117 126.715 113.665 129.926C113.542 130.014 113.367 129.988 113.28 129.861C113.189 129.738 113.218 129.563 113.344 129.475C118.156 126.011 122.521 129.576 122.563 129.611C122.68 129.709 122.696 129.884 122.599 130.001C122.54 130.065 122.463 130.098 122.385 130.098L122.382 130.104Z" fill="white"/>
<path d="M112.104 156.514C112.104 156.514 106.088 156.748 104.446 162.262L117.645 176.554L121.174 164.721C121.174 164.721 113.056 161.844 112.101 156.514H112.104Z" fill="#EDF3FF"/>
<path d="M117.246 176.398C117.204 176.398 117.159 176.388 117.12 176.365C109.996 172.671 104.566 162.823 104.511 162.723C104.437 162.59 104.485 162.421 104.621 162.346C104.757 162.272 104.922 162.32 104.997 162.457C105.049 162.554 110.401 172.256 117.373 175.872C117.509 175.944 117.56 176.109 117.492 176.245C117.444 176.343 117.35 176.395 117.246 176.395V176.398Z" fill="white"/>
<path d="M128.518 173.482C128.434 173.482 128.353 173.443 128.298 173.375C128.204 173.255 128.226 173.08 128.35 172.986C131.73 170.381 134.469 161.539 134.499 161.448C134.541 161.299 134.699 161.214 134.845 161.263C134.991 161.308 135.072 161.464 135.03 161.61C134.916 161.98 132.209 170.712 128.69 173.423C128.638 173.462 128.579 173.482 128.518 173.482Z" fill="white"/>
<path d="M126.471 157.513C126.471 157.513 125.031 162.95 121.177 164.721L128.013 172.327C128.013 172.327 134.275 164.202 133.634 160.137C133.634 160.137 131.137 156.939 126.475 157.51L126.471 157.513Z" fill="#EDF3FF"/>
<path d="M121.174 164.721L117.645 176.554L124.202 181.662L128.01 172.327L121.174 164.721Z" fill="#263238"/>
<path d="M135.451 249.63C135.451 249.63 122.796 278.362 149.951 285.621C168.501 290.578 195.539 278.093 207.51 282.047C207.51 282.047 202.284 283.886 196.248 304.13C190.212 324.373 178.578 373.492 178.578 373.492L192.926 374.079C192.926 374.079 232.692 284.055 233.463 269.77C234.234 255.485 163.084 245.238 163.084 245.238L135.451 249.63Z" fill="#263238"/>
<path d="M210.952 270.623C210.175 284.908 161.724 373.979 161.724 373.979L148.662 373.635L148.085 373.625L143.808 373.515C143.808 373.515 158.421 326.855 164.46 306.608C169.932 288.262 176.946 286.218 178.212 285.998C162.09 287.697 142.179 289.783 120.429 287.483C92.2972 284.509 104.495 253.697 104.495 253.697L109.326 253.065L109.935 252.987L135.454 249.636C135.454 249.636 211.716 256.341 210.952 270.626V270.623Z" fill="#263238"/>
<path d="M112.464 264.677C111.113 264.677 109.689 264.505 108.199 264.158L108.326 263.62C112.684 264.632 116.43 264.116 119.455 262.089C124.969 258.391 126.264 250.833 126.277 250.759L126.824 250.846C126.811 250.924 125.481 258.712 119.766 262.546C117.651 263.967 115.206 264.677 112.467 264.677H112.464Z" fill="white" fill-opacity="0.2"/>
<path d="M184.206 284.895C180.161 290.532 173.404 299.978 167.164 314.762C159.83 332.155 149.536 370.359 148.662 373.632C148.629 373.765 148.607 373.842 148.607 373.852C148.574 373.975 148.451 374.063 148.331 374.063C148.309 374.063 148.286 374.053 148.263 374.053C148.121 374.008 148.03 373.852 148.063 373.709C148.063 373.7 148.072 373.677 148.085 373.622C148.649 371.536 159.176 332.265 166.656 314.552C172.915 299.702 179.708 290.234 183.752 284.574C186.323 280.989 188.017 278.625 187.696 277.503C187.609 277.204 187.376 276.98 186.955 276.802C185.359 276.137 178.07 276.925 168.838 277.934C151.676 279.799 128.175 282.362 116.398 278.612C113.263 277.613 110.945 275.66 109.494 272.806C105.981 265.89 108.52 255.835 109.329 253.062L109.938 252.984C109.261 255.28 106.502 265.702 109.983 272.562C111.369 275.271 113.584 277.123 116.566 278.08C128.233 281.797 151.68 279.244 168.786 277.379C178.458 276.325 185.449 275.569 187.169 276.293C187.755 276.536 188.098 276.88 188.231 277.357C188.619 278.732 187.055 280.918 184.209 284.892L184.206 284.895Z" fill="white" fill-opacity="0.2"/>
<path d="M145.773 373.512L143.507 385.052H152.894L158.211 374.838L145.773 373.512Z" fill="#FF8B7B"/>
<path d="M143.474 382.704C143.474 382.704 141.324 382.367 141.438 385.053C141.548 387.738 139.216 394.209 139.326 396.697H168.174C168.174 396.697 169.097 390.538 163.874 390.349C156.873 390.1 154.484 386.074 154.484 386.074C154.079 383.259 152.058 384.203 149.102 384.501C146.411 384.774 143.478 382.704 143.478 382.704H143.474Z" fill="#263238"/>
<path d="M155.999 387.699C155.999 387.699 154.649 387.855 153.992 388.893L155.999 387.699Z" fill="black"/>
<path d="M153.992 389.169C153.94 389.169 153.888 389.156 153.843 389.127C153.713 389.045 153.674 388.874 153.758 388.744C154.481 387.608 155.909 387.43 155.97 387.424C156.116 387.407 156.258 387.514 156.278 387.667C156.294 387.819 156.187 387.956 156.035 387.975C156.022 387.978 154.804 388.134 154.228 389.042C154.176 389.127 154.086 389.172 153.995 389.172L153.992 389.169Z" fill="black"/>
<path d="M157.34 388.293C157.34 388.293 155.989 388.449 155.332 389.487L157.34 388.293Z" fill="black"/>
<path d="M155.332 389.766C155.28 389.766 155.229 389.753 155.183 389.723C155.054 389.642 155.015 389.47 155.099 389.341C155.821 388.205 157.249 388.027 157.311 388.02C157.456 388.007 157.599 388.111 157.618 388.264C157.634 388.416 157.528 388.552 157.375 388.572C157.362 388.575 156.148 388.731 155.568 389.639C155.517 389.723 155.426 389.769 155.335 389.769L155.332 389.766Z" fill="black"/>
<path d="M159.014 389.094C159.014 389.094 157.663 389.25 157.006 390.288L159.014 389.094Z" fill="black"/>
<path d="M157.003 390.567C156.951 390.567 156.899 390.554 156.854 390.525C156.724 390.443 156.686 390.272 156.77 390.142C157.492 389.007 158.92 388.828 158.981 388.822C159.127 388.805 159.27 388.912 159.289 389.065C159.305 389.217 159.198 389.354 159.046 389.373C159.033 389.376 157.819 389.532 157.239 390.44C157.188 390.525 157.097 390.57 157.006 390.57L157.003 390.567Z" fill="black"/>
<path d="M167.925 395.017H139.524C139.372 395.017 139.249 394.894 139.249 394.741C139.249 394.589 139.372 394.466 139.524 394.466H167.925C168.077 394.466 168.2 394.589 168.2 394.741C168.2 394.894 168.077 395.02 167.925 395.02V395.017Z" fill="black"/>
<path d="M163.155 378.497H140.91L142.309 371.65H164.554L163.155 378.497Z" fill="#263238"/>
<path d="M163.155 378.497H140.91L142.309 371.65H164.554L163.155 378.497Z" fill="white" fill-opacity="0.301961"/>
<path d="M180.187 373.512L178.4 385.052H187.787L191.78 374.741L180.187 373.512Z" fill="#FF8B7B"/>
<path d="M178.27 382.704C178.27 382.704 176.107 382.367 176.331 385.053C176.554 387.738 174.492 394.209 174.709 396.697H203.556C203.556 396.697 204.223 390.538 198.991 390.349C191.98 390.1 189.422 386.074 189.422 386.074C188.901 383.259 186.919 384.203 183.976 384.501C181.298 384.774 178.274 382.704 178.274 382.704H178.27Z" fill="#263238"/>
<path d="M191.006 387.699C191.006 387.699 189.662 387.855 189.047 388.893L191.006 387.699Z" fill="black"/>
<path d="M189.047 389.169C188.998 389.169 188.95 389.156 188.904 389.13C188.771 389.052 188.729 388.88 188.807 388.75C189.484 387.608 190.912 387.43 190.973 387.424C191.122 387.407 191.261 387.514 191.281 387.667C191.297 387.819 191.19 387.956 191.038 387.975C191.025 387.978 189.821 388.134 189.286 389.036C189.234 389.123 189.141 389.172 189.047 389.172V389.169Z" fill="black"/>
<path d="M192.372 388.293C192.372 388.293 191.028 388.449 190.413 389.487L192.372 388.293Z" fill="black"/>
<path d="M190.413 389.766C190.365 389.766 190.316 389.753 190.271 389.727C190.138 389.649 190.096 389.477 190.174 389.347C190.85 388.205 192.278 388.027 192.34 388.02C192.485 388.007 192.628 388.111 192.647 388.264C192.664 388.416 192.557 388.552 192.405 388.572C192.392 388.575 191.187 388.731 190.653 389.633C190.601 389.72 190.507 389.769 190.413 389.769V389.766Z" fill="black"/>
<path d="M194.075 389.094C194.075 389.094 192.732 389.25 192.116 390.288L194.075 389.094Z" fill="black"/>
<path d="M192.12 390.567C192.071 390.567 192.022 390.554 191.98 390.528C191.848 390.45 191.805 390.278 191.883 390.148C192.56 389.007 193.988 388.828 194.049 388.822C194.202 388.805 194.338 388.912 194.357 389.065C194.373 389.217 194.266 389.354 194.114 389.373C194.101 389.376 192.897 389.532 192.362 390.434C192.311 390.521 192.217 390.57 192.123 390.57L192.12 390.567Z" fill="black"/>
<path d="M203.226 395.017H174.825C174.673 395.017 174.55 394.894 174.55 394.741C174.55 394.589 174.673 394.466 174.825 394.466H203.226C203.378 394.466 203.501 394.589 203.501 394.741C203.501 394.894 203.378 395.02 203.226 395.02V395.017Z" fill="black"/>
<path d="M195.351 378.497H175.528L176.522 371.65H196.342L195.351 378.497Z" fill="#263238"/>
<path d="M195.351 378.497H175.528L176.522 371.65H196.342L195.351 378.497Z" fill="white" fill-opacity="0.301961"/>
<path d="M113.27 180.375L112.823 181.416L112.308 182.687C111.968 183.55 111.625 184.423 111.308 185.302C110.683 187.066 110.08 188.831 109.608 190.586C108.614 194.069 108.011 197.521 107.921 200.42C107.882 201.861 107.992 203.158 108.196 204.193C108.381 205.253 108.678 206.012 109.009 206.655C109.365 207.277 109.792 207.816 110.488 208.413C111.204 208.984 112.188 209.577 113.48 210.048C114.759 210.521 116.275 210.904 117.93 211.196L118.574 211.309L119.374 211.426L120.973 211.663L124.176 212.12C128.45 212.727 132.744 213.33 137.053 213.891C145.65 215.056 154.383 216.155 162.984 217.404L163.188 228.942C154.192 230.379 145.32 231.138 136.331 231.589C131.847 231.786 127.352 231.942 122.848 231.945L119.468 231.932L117.777 231.919L116.932 231.913L115.932 231.864C113.208 231.731 110.372 231.362 107.425 230.593C104.492 229.844 101.409 228.637 98.43 226.817C96.9502 225.883 95.4866 224.822 94.1461 223.57C92.8088 222.315 91.5783 220.92 90.4968 219.422C88.3565 216.418 86.867 213.074 85.9927 209.859C85.0957 206.622 84.7817 203.499 84.7039 200.537C84.5841 194.608 85.5782 189.301 86.909 184.299C87.6085 181.805 88.3824 179.379 89.3052 177.017C89.765 175.837 90.241 174.662 90.7591 173.498L91.5751 171.743L92.0122 170.845L92.5432 169.8L113.276 180.381L113.27 180.375Z" fill="#0777AB"/>
<path d="M104.819 229.863C104.819 229.811 104.66 224.702 101.247 221.585C97.8633 218.494 92.0187 220.563 91.9572 220.586L91.7693 220.064C92.0219 219.973 97.9896 217.861 101.619 221.177C105.214 224.456 105.366 229.633 105.372 229.853L104.819 229.866V229.863Z" fill="white" fill-opacity="0.2"/>
<path d="M185.148 228.896H174.284L163.032 228.371L161.734 220.768C161.734 220.768 172.325 219.847 175.466 220.768C175.466 220.768 183.442 224.637 184.487 226.01C185.533 227.385 185.148 228.893 185.148 228.893V228.896Z" fill="#FF8B7B"/>
<path d="M156.977 229.172C156.899 229.172 156.822 229.14 156.767 229.078C154.633 226.613 154.438 218.851 154.432 218.523C154.429 218.367 154.549 218.241 154.704 218.238C154.707 218.238 154.707 218.238 154.71 218.238C154.863 218.238 154.986 218.358 154.986 218.51C154.986 218.588 155.183 226.399 157.188 228.711C157.288 228.828 157.275 229.003 157.158 229.101C157.107 229.149 157.042 229.169 156.977 229.169V229.172Z" fill="white"/>
<path d="M155.416 225.205C155.267 225.205 155.144 225.088 155.141 224.939C155.135 224.787 155.254 224.657 155.407 224.65L162.385 224.352C162.543 224.349 162.666 224.466 162.673 224.618C162.679 224.77 162.559 224.9 162.407 224.907L155.429 225.205C155.423 225.205 155.42 225.205 155.416 225.205Z" fill="white"/>
<path d="M234.829 226.739H223.302L211.363 226.185L209.987 218.118C209.987 218.118 221.226 217.138 224.558 218.118C224.558 218.118 233.023 222.224 234.133 223.681C235.244 225.14 234.833 226.739 234.833 226.739H234.829Z" fill="#FF8B7B"/>
<path d="M240.836 162.849C240.836 162.849 239.868 247.213 240.836 269.556C241.843 292.845 247.827 372.821 247.898 372.464H262.21C262.21 372.464 274.081 215.844 275.182 199.376C276.286 182.908 270.898 168.684 270.898 168.684L240.836 162.846V162.849Z" fill="#263238"/>
<path d="M305.781 171.811C305.781 171.811 312.84 250.11 313.993 272.4C315.146 294.691 318.261 373.207 318.261 373.207L303.039 372.344C303.039 372.344 275.593 214.767 272.757 198.328C269.92 181.889 273.304 171.711 273.304 171.711L305.781 171.808V171.811Z" fill="#263238"/>
<path d="M307.394 193.57C304.645 193.57 302.388 192.655 300.681 190.852C296.417 186.343 297.009 177.922 297.039 177.569L297.589 177.611C297.583 177.695 296.987 186.142 301.086 190.472C302.744 192.224 304.969 193.077 307.682 193.012L307.695 193.567C307.595 193.57 307.494 193.57 307.397 193.57H307.394Z" fill="white" fill-opacity="0.2"/>
<path d="M277.623 198.64C277.186 198.64 276.704 198.565 276.173 198.387L276.348 197.858C277.924 198.383 279.22 197.981 280.201 196.671C280.865 195.782 281.23 194.575 281.23 193.271V177.585H281.784V193.271C281.784 194.695 281.379 196.022 280.644 197.005C280.042 197.809 279.071 198.64 277.623 198.64Z" fill="white" fill-opacity="0.2"/>
<path d="M275.982 206.58H276.539V176.401H275.982V206.58Z" fill="white" fill-opacity="0.2"/>
<path d="M307.727 372.947C307.595 372.947 307.478 372.853 307.455 372.717L278.647 208.059C278.621 207.907 278.721 207.764 278.87 207.738C279.016 207.706 279.165 207.813 279.191 207.962L307.999 372.623C308.025 372.775 307.925 372.918 307.776 372.944C307.76 372.947 307.744 372.947 307.727 372.947Z" fill="white" fill-opacity="0.2"/>
<path d="M260.818 373.207L260.517 384.9H251.133L249.002 374.456L260.818 373.207Z" fill="#CE7A63"/>
<path d="M261.07 382.519C261.07 382.519 263.295 382.179 262.586 384.897C261.877 387.615 262.77 394.17 262.103 396.694H233.256C233.256 396.694 233.703 390.453 238.968 390.265C246.023 390.012 249.31 385.932 249.31 385.932C250.34 383.077 252.15 384.034 255.041 384.339C257.671 384.615 261.067 382.519 261.067 382.519H261.07Z" fill="#263238"/>
<path d="M247.435 387.579C247.435 387.579 248.75 387.738 249.177 388.789L247.435 387.579Z" fill="black"/>
<path d="M249.177 389.055C249.074 389.055 248.973 388.994 248.931 388.89C248.568 388.001 247.412 387.845 247.403 387.842C247.257 387.826 247.153 387.69 247.173 387.547C247.189 387.401 247.322 387.3 247.467 387.317C247.526 387.323 248.944 387.508 249.423 388.689C249.478 388.825 249.414 388.981 249.278 389.036C249.245 389.049 249.21 389.055 249.177 389.055Z" fill="white"/>
<path d="M245.962 388.186C245.962 388.186 247.276 388.345 247.704 389.396L245.962 388.186Z" fill="black"/>
<path d="M247.704 389.662C247.6 389.662 247.5 389.6 247.458 389.496C247.095 388.608 245.939 388.452 245.929 388.449C245.784 388.432 245.68 388.299 245.699 388.153C245.716 388.007 245.852 387.907 245.994 387.923C246.052 387.93 247.467 388.115 247.95 389.295C248.005 389.431 247.94 389.587 247.804 389.642C247.769 389.655 247.736 389.662 247.701 389.662H247.704Z" fill="white"/>
<path d="M244.113 388.997C244.113 388.997 245.428 389.156 245.855 390.207L244.113 388.997Z" fill="black"/>
<path d="M245.855 390.473C245.751 390.473 245.651 390.411 245.609 390.307C245.243 389.409 244.093 389.263 244.08 389.26C243.935 389.243 243.831 389.11 243.847 388.964C243.864 388.818 244 388.724 244.142 388.734C244.2 388.741 245.615 388.925 246.098 390.106C246.153 390.242 246.088 390.398 245.952 390.453C245.92 390.466 245.887 390.473 245.852 390.473H245.855Z" fill="white"/>
<path d="M262.343 394.981H233.942C233.796 394.981 233.677 394.861 233.677 394.715C233.677 394.569 233.796 394.449 233.942 394.449H262.343C262.489 394.449 262.609 394.569 262.609 394.715C262.609 394.861 262.489 394.981 262.343 394.981Z" fill="white"/>
<path d="M246.12 378.26H264.574L264.82 371.322H245.962L246.12 378.26Z" fill="#263238"/>
<path d="M304.447 373.216L307.446 384.783H316.833L316.551 374.452L304.447 373.216Z" fill="#CE7A63"/>
<path d="M306.892 382.406C306.892 382.406 304.667 382.065 305.377 384.783C306.086 387.501 305.192 394.057 305.859 396.58H334.707C334.707 396.58 334.26 390.34 328.995 390.152C321.939 389.899 318.653 385.818 318.653 385.818C317.623 382.964 315.813 383.92 312.921 384.225C310.292 384.501 306.895 382.406 306.895 382.406H306.892Z" fill="#263238"/>
<path d="M320.531 387.466C320.531 387.466 319.216 387.625 318.789 388.676L320.531 387.466Z" fill="black"/>
<path d="M318.789 388.938C318.892 388.938 318.993 388.877 319.035 388.773C319.397 387.884 320.553 387.729 320.563 387.725C320.709 387.709 320.812 387.576 320.793 387.43C320.777 387.284 320.644 387.184 320.498 387.2C320.44 387.206 319.022 387.391 318.542 388.572C318.487 388.708 318.552 388.864 318.688 388.919C318.724 388.932 318.756 388.938 318.792 388.938H318.789Z" fill="white"/>
<path d="M322.004 388.069C322.004 388.069 320.689 388.228 320.262 389.279L322.004 388.069Z" fill="black"/>
<path d="M320.262 389.545C320.365 389.545 320.466 389.483 320.508 389.38C320.871 388.491 322.027 388.335 322.036 388.332C322.182 388.316 322.286 388.183 322.266 388.037C322.25 387.891 322.114 387.79 321.972 387.806C321.913 387.813 320.495 387.998 320.016 389.178C319.961 389.315 320.025 389.47 320.161 389.526C320.194 389.538 320.229 389.545 320.262 389.545Z" fill="white"/>
<path d="M323.853 388.88C323.853 388.88 322.538 389.039 322.111 390.09L323.853 388.88Z" fill="black"/>
<path d="M322.111 390.356C322.214 390.356 322.315 390.294 322.357 390.191C322.723 389.292 323.872 389.146 323.885 389.143C324.031 389.127 324.135 388.994 324.118 388.848C324.102 388.702 323.966 388.608 323.824 388.617C323.765 388.624 322.35 388.809 321.868 389.989C321.813 390.126 321.878 390.281 322.014 390.336C322.049 390.349 322.082 390.356 322.114 390.356H322.111Z" fill="white"/>
<path d="M305.619 394.865H334.02C334.166 394.865 334.286 394.745 334.286 394.599C334.286 394.453 334.166 394.333 334.02 394.333H305.619C305.474 394.333 305.354 394.453 305.354 394.599C305.354 394.745 305.471 394.865 305.619 394.865Z" fill="white"/>
<path d="M320.942 378.26L301.834 378.478L300.562 371.552L320.696 371.322L320.942 378.26Z" fill="#263238"/>
<path d="M299.432 69.3831L303.223 74.1286L307.102 78.9357C309.686 82.1339 312.312 85.277 314.948 88.3326C317.61 91.3459 320.252 94.3431 322.949 96.9347C324.284 98.2419 325.605 99.4843 326.848 100.483C327.467 100.983 328.056 101.43 328.571 101.784C328.846 101.988 329.024 102.066 329.251 102.232C329.358 102.306 329.403 102.313 329.477 102.365L329.578 102.433L329.626 102.468C329.655 102.485 329.523 102.436 329.474 102.426C328.305 102.173 328.185 102.394 328.389 102.413C328.603 102.462 329.179 102.404 329.817 102.271C331.132 102.008 332.787 101.411 334.48 100.74C337.903 99.3869 341.474 97.5056 345.059 95.5854C352.202 91.6638 359.442 87.1713 366.53 82.7762L373.673 91.1902C367.634 97.7651 361.285 103.714 354.226 109.345C350.696 112.17 346.989 114.817 342.773 117.321C340.642 118.563 338.382 119.728 335.617 120.753C334.218 121.256 332.712 121.732 330.802 122.041C328.891 122.303 326.579 122.56 323.364 121.655C321.165 120.954 319.88 120.328 318.462 119.598C317.121 118.888 315.923 118.158 314.796 117.418C312.552 115.936 310.58 114.438 308.731 112.884C305.053 109.767 301.724 106.614 298.603 103.318C295.462 100.055 292.522 96.6915 289.669 93.2791C288.264 91.5568 286.865 89.8344 285.511 88.0731L283.497 85.41L281.496 82.6237L299.419 69.3799L299.432 69.3831Z" fill="#263238"/>
<path d="M366.53 82.7762C366.53 82.7762 371.429 78.5951 373.168 75.7115C374.907 72.8279 384.129 82.3642 384.255 83.7331C384.378 85.1019 373.677 91.1902 373.677 91.1902L366.534 82.7762H366.53Z" fill="#CE7A63"/>
<path d="M372.168 75.5655C372.168 75.5655 380.774 64.7382 382.924 63.5737C385.075 62.4093 379.534 72.6625 379.534 72.6625C379.534 72.6625 386.982 76.8079 387.15 79.5455C387.315 82.2799 385.735 84.8554 383.922 85.3484C382.112 85.8447 380.774 84.1028 380.774 84.1028L372.168 75.5623V75.5655Z" fill="#CE7A63"/>
<path d="M368.295 82.2377C368.295 82.2377 369.007 71.0698 370.83 70.8201C372.653 70.5703 376.393 76.2272 376.393 76.2272L368.298 82.2377H368.295Z" fill="#CE7A63"/>
<path d="M262.796 62.3087C262.796 62.3087 241.791 69.5323 240.376 74.8682C238.961 80.2072 242.351 121.966 242.529 129.91C242.707 137.853 236.202 167.235 240.71 172.872C245.538 178.915 305.581 182.24 306.626 175.035C307.977 165.713 304.622 135.69 304.975 125.252C305.328 114.811 302.087 73.4247 299.788 69.4091C297.489 65.3934 276.652 63.2396 276.652 63.2396L262.796 62.3087Z" fill="#0777AB"/>
<path d="M243.685 173.745C242.037 169.336 244.618 152.975 246.506 141.029C246.975 138.042 247.383 135.46 247.668 133.426C249.054 123.481 245.178 101.1 245.139 100.873L245.683 100.779C245.722 101.002 249.614 123.474 248.215 133.504C247.93 135.544 247.522 138.126 247.053 141.117C245.285 152.33 242.61 169.275 244.207 173.55L243.685 173.745Z" fill="white" fill-opacity="0.2"/>
<path d="M260.167 34.7506C260.167 34.7506 257.424 26.4825 258.483 23.1189C259.542 19.7552 261.919 19.3108 261.919 19.3108C261.919 19.3108 263.256 10.3681 272.093 10.9C280.933 11.432 291.184 8.24347 293.127 12.8462C295.07 17.449 288.076 20.4591 288.076 20.4591C288.076 20.4591 290.851 23.7449 289.789 26.4793C288.73 29.2137 286.295 26.6577 286.295 26.6577L260.164 34.7474L260.167 34.7506Z" fill="#263238"/>
<path d="M279.417 66.7979C278.443 68.0954 277.329 70.6806 273.456 71.2028C268.567 71.8613 262.984 66.6877 262.375 64.5663C263.764 57.5665 264.645 49.4801 263.447 43.1257L269.823 48.4486L279.071 56.162L279.08 56.1717C279.029 56.3404 278.987 56.522 278.931 56.6907C278.867 56.9242 278.825 57.1578 278.773 57.3913C278.647 57.9655 278.549 58.5266 278.488 59.091C278.436 59.5484 278.404 59.996 278.394 60.4404C278.352 61.8222 278.468 63.1618 278.734 64.4333C278.902 65.2507 279.135 66.0357 279.424 66.7914L279.417 66.7979Z" fill="#CE7A63"/>
<path d="M273.032 81.6961C270.804 81.6961 268.816 80.9954 267.106 79.6006C261.307 74.8811 260.585 63.9597 260.556 63.4991C260.546 63.3467 260.662 63.2137 260.815 63.204C260.977 63.1878 261.1 63.311 261.109 63.4635C261.116 63.5737 261.848 74.6054 267.459 79.1692C269.463 80.8008 271.876 81.4236 274.635 81.0181C276.691 80.7165 278.232 79.7499 279.22 78.1475C282.28 73.1847 279.191 63.6613 279.161 63.564C279.113 63.4181 279.19 63.2624 279.336 63.2137C279.475 63.165 279.637 63.2429 279.686 63.3889C279.819 63.7911 282.885 73.2561 279.692 78.4362C278.614 80.1845 276.94 81.2355 274.716 81.5631C274.142 81.6474 273.582 81.6896 273.038 81.6896L273.032 81.6961Z" fill="white"/>
<path d="M278.727 64.4398C275.269 63.7165 271.008 60.914 269.735 57.3978C268.907 55.1143 269.693 52.7756 270.616 52.5323L278.485 59.0975C278.433 59.5549 278.4 60.0025 278.391 60.4469C278.349 61.8254 278.465 63.1651 278.731 64.4398H278.727Z" fill="black" fill-opacity="0.2"/>
<path d="M260.86 31.3318C260.193 20.8678 270.422 12.937 280.508 17.0208C290.744 21.1629 292.207 36.6968 289.983 46.1034C287.512 56.5577 274.628 61.3778 266.672 53.3173C261.384 47.9588 261.524 41.7991 260.86 31.3318Z" fill="#CE7A63"/>
<path d="M270.234 25.4024C270.234 25.4024 272.238 29.6257 269.386 30.7544C266.536 31.8832 269.386 37.0179 269.386 37.0179L263.418 39.2755C263.418 39.2755 260.368 36.2784 260.368 31.734C260.368 27.1897 260.614 24.1828 260.614 24.1828L270.231 25.4024H270.234Z" fill="black" fill-opacity="0.2"/>
<path d="M260.371 25.597C260.371 25.597 266.737 27.3681 269.386 26.129C272.034 24.8899 267.971 22.9405 270.004 21.2603C272.038 19.5768 283.419 20.3034 286.612 21.9739C289.802 23.6476 286.8 15.9472 280.434 14.9741C274.071 14.001 261.521 15.4184 260.371 25.597Z" fill="#263238"/>
<path d="M264.943 38.523C264.943 38.523 258.865 44.154 263.943 52.5291C267.161 57.8422 276.114 62.3963 281.768 61.5854C289.734 60.4469 290.469 43.5734 290.469 43.5734C290.469 43.5734 288.111 40.9947 285.093 42.9376C282.076 44.8806 279.304 40.9103 276.862 40.9103C274.421 40.9103 272.086 44.6341 270.231 43.1225C268.375 41.611 269.382 37.0147 269.382 37.0147L264.94 38.5198L264.943 38.523Z" fill="#263238"/>
<path d="M256.395 38.3219C257.172 41.0401 259.128 43.1452 261.174 44.2416C264.253 45.8894 266.543 43.3139 266.316 40.0086C266.112 37.0342 264.266 32.5936 260.876 32.3114C257.534 32.0325 255.507 35.2145 256.395 38.3219Z" fill="#CE7A63"/>
<path d="M276.866 36.4276C276.869 37.2807 277.319 37.9683 277.876 37.9683C278.433 37.9683 278.88 37.2742 278.88 36.4243C278.876 35.5713 278.426 34.8836 277.869 34.8836C277.312 34.8836 276.862 35.5777 276.866 36.4276Z" fill="#263238"/>
<path d="M286.188 36.2946C286.191 37.1477 286.641 37.8354 287.198 37.8354C287.755 37.8354 288.202 37.1412 288.202 36.2914C288.202 35.4383 287.749 34.7506 287.192 34.7506C286.635 34.7506 286.188 35.4448 286.188 36.2946Z" fill="#263238"/>
<path d="M277.571 44.154C277.571 44.154 280.751 45.6753 285.964 45.1044C285.964 45.1044 285.414 48.7892 282.04 48.8638C277.957 48.9546 277.571 44.154 277.571 44.154Z" fill="white"/>
<path d="M289.167 32.5579C289.021 32.5579 288.882 32.4833 288.804 32.3471C288.461 31.7438 288.027 31.3675 287.512 31.228C286.664 31.0042 285.832 31.4843 285.822 31.4875C285.631 31.6043 285.372 31.5426 285.252 31.3448C285.132 31.1469 285.197 30.8907 285.395 30.7739C285.44 30.748 286.528 30.1057 287.723 30.4203C288.464 30.615 289.07 31.1242 289.526 31.9319C289.64 32.133 289.568 32.386 289.368 32.4995C289.303 32.5352 289.235 32.5547 289.164 32.5547L289.167 32.5579Z" fill="#263238"/>
<path d="M274.67 32.8823C274.609 32.8823 274.547 32.8693 274.489 32.8401C274.282 32.7396 274.197 32.4931 274.298 32.2855C274.32 32.2368 274.881 31.1048 276.053 30.7155C276.781 30.4723 277.565 30.5663 278.391 30.9912C278.595 31.095 278.676 31.348 278.569 31.5524C278.462 31.7567 278.213 31.8378 278.009 31.7308C277.393 31.4129 276.827 31.3351 276.322 31.5037C275.483 31.7795 275.049 32.6423 275.046 32.652C274.971 32.798 274.826 32.8855 274.67 32.8855V32.8823Z" fill="#263238"/>
<path d="M282.532 35.0555C282.532 35.0555 283.154 37.7478 285.291 39.5415C287.428 41.3353 283.225 42.9409 283.225 42.9409L282.529 35.0555H282.532Z" fill="#BA4D3C"/>
<path d="M258.554 87.499L240.282 106.017C237.294 109.131 234.272 112.193 231.459 115.326C228.619 118.401 225.844 121.58 223.687 124.503C223.153 125.216 222.664 125.914 222.288 126.501C221.913 127.059 221.654 127.607 221.631 127.464C221.644 127.376 221.631 127.321 221.66 127.059V126.9C221.667 126.806 221.673 126.712 221.673 126.617C221.673 126.429 221.647 126.228 221.641 126.092C221.563 125.447 221.404 125.129 221.343 125.035C221.187 124.83 221.288 125.255 221.566 125.758C222.136 126.819 223.27 128.256 224.532 129.631C225.818 131.016 227.249 132.443 228.752 133.844C234.829 139.433 241.856 144.86 248.698 150.105L243.352 159.764C239 158.003 234.93 156.063 230.801 153.961C226.712 151.827 222.658 149.557 218.659 146.907C216.654 145.583 214.65 144.182 212.662 142.554C210.667 140.912 208.663 139.161 206.603 136.631C205.58 135.34 204.512 133.841 203.579 131.551C203.126 130.419 202.701 129.002 202.559 127.25C202.517 126.835 202.514 126.358 202.52 125.891L202.546 125.19L202.601 124.616C202.685 123.802 202.812 123.205 202.948 122.576C203.508 120.283 204.178 118.794 204.826 117.38C205.476 115.994 206.137 114.781 206.801 113.623C209.492 109.082 212.296 105.307 215.161 101.567C218.079 97.8981 220.996 94.3366 224.053 90.9275C227.081 87.4925 230.189 84.171 233.346 80.9079C236.549 77.6577 239.699 74.5016 243.158 71.3715L258.545 87.4957L258.554 87.499Z" fill="#263238"/>
<path d="M241.373 144.847C241.373 144.847 247.503 148.794 247.901 152.495C248.3 156.196 245.567 164.698 242.996 164.299C240.425 163.9 238.479 163.482 237.294 159.764C236.112 156.047 241.373 144.847 241.373 144.847Z" fill="#CE7A63"/>
<path d="M240.583 193.563L240.538 193.012C251.544 192.133 251.214 176.184 251.207 176.022L251.761 176.005C251.768 176.171 252.114 192.642 240.583 193.563Z" fill="white" fill-opacity="0.2"/>
<path d="M262.492 229.889H195.28C193.677 229.889 192.54 228.319 193.042 226.795L207.643 182.256C207.96 181.289 208.863 180.634 209.88 180.634H277.092C278.695 180.634 279.832 182.204 279.33 183.729L264.729 228.267C264.412 229.234 263.509 229.889 262.492 229.889Z" fill="#407BFF"/>
<path d="M262.492 229.889H195.28C193.677 229.889 192.54 228.319 193.042 226.795L207.643 182.256C207.96 181.289 208.863 180.634 209.88 180.634H277.092C278.695 180.634 279.832 182.204 279.33 183.729L264.729 228.267C264.412 229.234 263.509 229.889 262.492 229.889Z" fill="white" fill-opacity="0.6"/>
<path d="M242.866 206.123C242.351 209.061 239.525 211.446 236.549 211.446C233.573 211.446 231.578 209.061 232.09 206.123C232.605 203.184 235.432 200.8 238.407 200.8C241.386 200.8 243.381 203.184 242.866 206.123Z" fill="white" fill-opacity="0.501961"/>
<path d="M171.344 228.896L169.92 233.181C169.486 234.485 170.454 235.828 171.827 235.828H260.854C261.718 235.828 262.485 235.273 262.761 234.453L264.61 228.896H171.351H171.344Z" fill="#407BFF"/>
<path d="M171.344 228.896L169.92 233.181C169.486 234.485 170.454 235.828 171.827 235.828H260.854C261.718 235.828 262.485 235.273 262.761 234.453L264.61 228.896H171.351H171.344Z" fill="white" fill-opacity="0.6"/>
<path d="M264.412 229.172H193.363C193.211 229.172 193.088 229.049 193.088 228.896C193.088 228.744 193.211 228.621 193.363 228.621H264.412C264.564 228.621 264.687 228.744 264.687 228.896C264.687 229.049 264.564 229.175 264.412 229.175V229.172Z" fill="#407BFF"/>
<path d="M309.246 229.889H376.458C378.061 229.889 379.198 228.319 378.696 226.795L364.095 182.256C363.778 181.289 362.875 180.634 361.858 180.634H294.646C293.043 180.634 291.906 182.204 292.408 183.729L307.009 228.267C307.326 229.234 308.226 229.889 309.243 229.889H309.246Z" fill="#407BFF"/>
<path d="M309.246 229.889H376.458C378.061 229.889 379.198 228.319 378.696 226.795L364.095 182.256C363.778 181.289 362.875 180.634 361.858 180.634H294.646C293.043 180.634 291.906 182.204 292.408 183.729L307.009 228.267C307.326 229.234 308.226 229.889 309.243 229.889H309.246Z" fill="white" fill-opacity="0.6"/>
<path d="M315.317 225.361H370.176C371.485 225.361 372.411 224.08 372.003 222.834L360.083 186.482C359.824 185.691 359.086 185.156 358.257 185.156H303.398C302.09 185.156 301.164 186.437 301.572 187.683L313.488 224.034C313.747 224.826 314.485 225.361 315.314 225.361H315.317Z" fill="white" fill-opacity="0.4"/>
<path d="M400.394 228.896L401.819 233.181C402.252 234.485 401.284 235.828 399.911 235.828H310.885C310.02 235.828 309.253 235.273 308.977 234.453L307.128 228.896H400.391H400.394Z" fill="#407BFF"/>
<path d="M400.394 228.896L401.819 233.181C402.252 234.485 401.284 235.828 399.911 235.828H310.885C310.02 235.828 309.253 235.273 308.977 234.453L307.128 228.896H400.391H400.394Z" fill="white" fill-opacity="0.4"/>
<path d="M438.684 235.828H168.932V243.992H438.684V235.828Z" fill="black"/>
<path d="M168.932 243.992H438.684V235.828H168.932V243.992Z" fill="white" fill-opacity="0.8"/>
<path d="M186.757 243.996L162.524 396.642L167.391 396.752L197.414 243.996H186.757Z" fill="black"/>
<path d="M186.757 243.996L162.524 396.636L167.391 396.746L197.414 243.996H186.757Z" fill="white" fill-opacity="0.8"/>
<path d="M416.221 243.996L440.455 396.642L435.591 396.752L405.565 243.996H416.221Z" fill="black"/>
<path d="M416.221 243.996L440.455 396.636L435.591 396.746L405.565 243.996H416.221Z" fill="white" fill-opacity="0.8"/>
<path d="M410.947 252.439H187.062V255.569H410.947V252.439Z" fill="black"/>
<path d="M187.062 255.569H410.943V252.439H187.062V255.569Z" fill="white" fill-opacity="0.8"/>
<path d="M439.788 249.63C439.788 249.63 452.442 278.362 425.288 285.621C406.737 290.578 379.699 278.093 367.728 282.047C367.728 282.047 372.955 283.886 378.99 304.13C385.026 324.373 395.384 362.181 395.384 362.181L381.037 362.769C381.037 362.769 342.546 284.055 341.772 269.77C341.001 255.485 412.151 245.238 412.151 245.238L439.784 249.63H439.788Z" fill="#263238"/>
<path d="M470.75 253.694C470.75 253.694 482.944 284.502 454.806 287.477C432.975 289.783 412.986 287.665 396.829 285.972C396.829 285.972 404.746 286.358 410.781 306.601C416.817 326.845 428.14 362.318 428.14 362.318L410.402 362.379C410.402 362.379 365.063 284.898 364.293 270.616C363.522 256.331 439.791 249.63 439.791 249.63L470.75 253.694Z" fill="#263238"/>
<path d="M390.952 364.277C389.715 360.968 360.653 283.202 360.653 278.346C360.653 273.383 403.794 267.658 408.715 267.022L408.787 267.574C389.663 270.049 361.21 274.956 361.21 278.346C361.21 283.101 391.168 363.275 391.473 364.082L390.955 364.277H390.952Z" fill="white" fill-opacity="0.2"/>
<path d="M426.463 364.18L428.733 375.72H419.346L414.029 365.506L426.463 364.18Z" fill="#B55B52"/>
<path d="M428.733 373.784C429.076 376.58 419.78 374.264 418.831 375.721C417.882 377.174 416.632 382.036 415.188 384.485C413.744 386.934 405.568 394.826 405.568 394.826H423.015L425.65 391.018L426.515 394.826H431.333C431.333 394.826 429.504 375.756 428.736 373.784H428.733Z" fill="#263238"/>
<path d="M409.085 369.168H431.33L429.931 362.318H407.686L409.085 369.168Z" fill="#263238"/>
<path d="M409.085 369.168H431.33L429.931 362.318H407.686L409.085 369.168Z" fill="white" fill-opacity="0.301961"/>
<path d="M390.479 138.499C390.314 138.557 390.123 138.528 389.977 138.405C389.76 138.22 389.734 137.896 389.919 137.678C391.755 135.502 394.115 135.771 394.215 135.784C394.497 135.82 394.698 136.076 394.662 136.358C394.627 136.64 394.371 136.838 394.089 136.806C394.012 136.796 392.169 136.608 390.702 138.343C390.641 138.418 390.563 138.47 390.479 138.496V138.499Z" fill="#263238"/>
<path d="M391.447 140.737C391.447 140.737 390.676 144.623 389.42 146.66C390.718 147.497 392.519 146.68 392.519 146.68L391.444 140.74L391.447 140.737Z" fill="#A02724"/>
<path d="M392.791 140.997C393.034 141.84 392.784 142.651 392.234 142.81C391.683 142.969 391.042 142.414 390.799 141.571C390.557 140.727 390.806 139.916 391.356 139.758C391.907 139.599 392.548 140.153 392.791 140.997Z" fill="#263238"/>
<path d="M391.612 139.735H389.423C389.423 139.735 390.916 141.016 391.612 139.735Z" fill="#263238"/>
<path d="M391.677 126.984C391.677 126.984 386.856 128.217 390.809 135.469L394.41 128.054L391.677 126.984Z" fill="#263238"/>
<path d="M412.225 119.297C412.225 119.297 408.126 103.231 421.198 104.424C434.27 105.621 431.971 116.676 431.971 116.676C431.971 116.676 439.852 116.958 436.274 125.998C432.696 135.038 418.659 129.274 418.659 129.274C415.318 127.062 413.352 123.565 412.222 119.293L412.225 119.297Z" fill="#263238"/>
<path d="M417.866 167.066C414.353 166.709 411.759 167.445 409.914 168.441C411.546 165.36 410.186 161.863 408.35 158.675L417.403 145.032C417.96 151.658 420.007 163.511 425.579 166.45C425.579 166.45 427.415 168.039 417.866 167.066Z" fill="#B55B52"/>
<path d="M413.712 150.595L408.353 158.665C408.974 159.735 409.535 160.841 409.939 161.957C412.501 160.809 415.334 156.822 414.819 153.942C414.563 152.505 414.123 151.178 413.709 150.595H413.712Z" fill="black" fill-opacity="0.2"/>
<path d="M419.816 132.287C421.052 142.748 421.8 147.15 417.546 153.41C411.144 162.823 398.046 162.058 393.71 152.178C389.809 143.283 388.439 127.668 397.807 121.713C407.032 115.845 418.579 121.823 419.816 132.284V132.287Z" fill="#B55B52"/>
<path d="M403.467 117.152C403.467 117.152 412.973 114.502 419.563 120.487C426.152 126.472 427.901 142.171 418.005 152.709C418.316 155.885 404.561 157.487 400.277 148.561C398.723 145.32 396.521 143.222 395.485 132.021C395.485 132.021 395.485 132.021 391.502 131.074C388.193 129.641 388.52 116.222 403.467 117.152Z" fill="#263238"/>
<path d="M405.131 140.624C404.762 142.774 403.434 144.558 401.954 145.57C399.73 147.091 397.755 145.307 397.651 142.751C397.557 140.452 398.606 136.887 401.187 136.384C403.732 135.891 405.555 138.165 405.131 140.624Z" fill="#B55B52"/>
<path d="M398.584 146.089C398.814 147.023 399.759 147.594 400.695 147.364C401.627 147.134 402.197 146.186 401.967 145.249C401.737 144.315 400.792 143.744 399.856 143.974C398.92 144.205 398.354 145.152 398.584 146.089Z" fill="white"/>
<path d="M423.863 130.915C423.853 130.915 423.847 130.915 423.834 130.915C411.202 129.748 411.325 116.692 411.325 116.559C411.329 116.4 411.452 116.267 411.62 116.277C411.779 116.28 411.908 116.413 411.902 116.572C411.892 117.088 411.792 129.222 423.886 130.338C424.044 130.351 424.161 130.494 424.145 130.653C424.132 130.802 424.006 130.915 423.857 130.915H423.863Z" fill="#0777AB"/>
<path d="M411.62 120.328C411.61 120.328 411.604 120.328 411.591 120.328C410.079 120.182 402.498 119.355 401.841 117.49C401.747 117.227 401.734 116.818 402.201 116.361C404.736 113.863 411.912 119.569 412.216 119.812C412.339 119.913 412.358 120.094 412.261 120.221C412.161 120.347 411.98 120.367 411.853 120.266C411.844 120.26 411.837 120.253 411.827 120.244C411.772 120.296 411.698 120.328 411.62 120.328ZM403.949 116.303C403.402 116.303 402.939 116.442 402.602 116.776C402.304 117.071 402.366 117.24 402.385 117.298C402.777 118.411 407.731 119.329 411.108 119.699C409.247 118.327 406.015 116.306 403.949 116.306V116.303Z" fill="#0777AB"/>
<path d="M411.617 119.696C411.461 119.696 411.335 119.572 411.329 119.42C411.329 119.407 411.329 119.397 411.329 119.384C411.244 119.378 411.163 119.335 411.112 119.264C410.231 118.022 405.895 111.745 406.87 110.023C407.006 109.78 407.31 109.497 407.954 109.556C411.5 109.841 411.892 119.008 411.908 119.397C411.915 119.556 411.788 119.692 411.633 119.699C411.63 119.699 411.626 119.699 411.623 119.699L411.617 119.696ZM407.799 110.124C407.475 110.124 407.398 110.26 407.372 110.305C406.789 111.33 409.34 115.683 411.273 118.482C411.04 115.566 410.16 110.308 407.909 110.13C407.87 110.127 407.835 110.124 407.799 110.124Z" fill="#0777AB" stroke="#0777AB" stroke-width="0.28932" stroke-miterlimit="2.61313"/>
<path d="M448.453 240.064C441.031 253.127 396.654 251.32 394.209 248.521C391.774 245.725 401.359 211.588 401.336 203.187V203.155C401.281 194.806 392.849 185.282 395.948 179.1C397.088 176.826 399.37 174.364 401.805 172.155C403.968 170.196 406.248 168.444 407.935 167.215C408.077 167.108 408.207 167.017 408.327 166.933L408.349 166.91C408.741 166.628 409.101 166.378 409.402 166.171C410.14 165.658 410.574 165.376 410.574 165.376C410.574 165.376 418.102 163.537 425.906 163.002C426.372 162.969 426.829 162.946 427.295 162.924C430.469 162.771 433.597 162.869 436.226 163.423C445.723 165.415 447.277 173.861 447.633 183.297C447.993 192.736 455.871 227.002 448.449 240.061L448.453 240.064Z" fill="#0777AB"/>
<path d="M399.293 249.649L398.742 249.614C399.29 241.498 409.723 196.473 409.829 196.019L410.367 196.145C410.263 196.599 399.84 241.579 399.293 249.653V249.649Z" fill="white" fill-opacity="0.2"/>
<path d="M427.299 162.924C427.289 162.956 427.289 162.979 427.276 163.011C426.829 164.753 421.026 169.421 415.693 169.236C410.891 169.074 408.392 167.526 407.935 167.212C408.078 167.105 408.207 167.014 408.327 166.93L408.35 166.907C408.741 166.625 409.101 166.375 409.402 166.167C410.597 166.56 413.388 167.29 417.322 167.147C422.658 166.972 425.897 163.011 425.897 163.011C425.897 163.011 425.896 163.011 425.906 163.002C426.376 162.972 426.832 162.95 427.299 162.927V162.924Z" fill="black" fill-opacity="0.2"/>
<path d="M414.748 186.109C413.964 197.31 405.578 201.685 401.339 203.187V203.155C401.284 194.806 392.852 185.282 395.951 179.1C397.091 176.826 399.374 174.364 401.809 172.155C407.566 173.242 415.425 176.498 414.751 186.109H414.748Z" fill="#B55B52"/>
<path d="M410.367 183.628C409.221 190.813 407.676 197.647 405.62 204.663C404.577 208.166 403.421 211.653 401.841 215.276C401.032 217.096 400.183 218.942 398.849 220.972C398.159 221.997 397.408 223.071 396.139 224.307L395.637 224.77L395.041 225.254C394.656 225.549 394.044 225.974 393.701 226.139C393.299 226.357 392.894 226.561 392.486 226.756L391.483 227.145C391.133 227.281 390.825 227.382 390.544 227.459L389.66 227.716C389.099 227.858 388.575 227.972 388.031 228.098L386.499 228.368L385.026 228.572C383.093 228.809 381.241 228.948 379.405 229.055C375.746 229.237 372.181 229.234 368.632 229.153C361.534 228.984 355.158 229.276 348.132 228.371L347.64 220.635C354.446 219.85 361.33 218.244 368.049 217.407C371.407 216.976 374.745 216.506 377.964 215.938C379.567 215.659 381.144 215.348 382.617 214.988L383.692 214.709L384.692 214.41L385.567 214.112L385.916 213.963C386.046 213.914 386.146 213.869 386.192 213.83C386.256 213.791 386.321 213.755 386.389 213.726C386.36 213.716 386.334 213.716 386.315 213.726C386.36 213.7 386.088 213.852 386.046 213.891C386.01 213.911 385.978 213.933 385.949 213.959C385.936 213.963 385.923 213.966 385.913 213.972C385.868 213.985 386.12 213.629 386.35 213.191C386.839 212.273 387.429 210.956 387.934 209.574C388.96 206.775 389.86 203.638 390.696 200.472C392.344 194.134 393.753 187.42 395.083 180.971L410.364 183.625L410.367 183.628Z" fill="#B55B52"/>
<path d="M326.013 228.896L336.679 228.371H348.128L349.427 220.768C349.427 220.768 338.835 219.847 335.694 220.768C335.694 220.768 327.719 224.638 326.673 226.01C325.627 227.382 326.013 228.893 326.013 228.893V228.896Z" fill="#B55B52"/>
<path d="M409.473 166.32C409.473 166.32 409.065 163.968 410.425 163.222C411.785 162.473 417.51 158.185 419.773 157.916C422.037 157.643 424.336 163.099 425.9 163.011C427.464 162.92 413.346 167.517 409.473 166.323V166.32Z" fill="#CCCCCC"/>
<path d="M498.905 169.94C506.462 173.164 507.871 178.302 506.906 186.038C504.348 206.59 497.859 255.965 493.675 263.415C488.371 272.867 414.026 273.847 410.237 265.235C406.449 256.62 418.239 183.956 424.601 177.086C429.896 171.37 477.255 160.708 498.901 169.94H498.905Z" fill="black"/>
<path d="M498.905 169.94C506.462 173.164 507.871 178.302 506.906 186.038C504.348 206.59 497.859 255.965 493.675 263.415C488.371 272.867 414.026 273.847 410.237 265.235C406.449 256.62 418.239 183.956 424.601 177.086C429.896 171.37 477.255 160.708 498.901 169.94H498.905Z" fill="white" fill-opacity="0.6"/>
<path d="M417.277 263.912L416.169 263.863C416.189 263.399 418.362 217.284 425.479 190.031C429.84 173.339 436.877 171.675 437.175 171.613L437.408 172.697C437.343 172.713 430.715 174.39 426.554 190.313C419.466 217.453 417.3 263.451 417.28 263.912H417.277Z" fill="white" fill-opacity="0.501961"/>
<path d="M410.943 263.886C410.943 263.886 406.74 264.544 396.184 266.335C392.668 266.932 389.216 267.493 386.179 267.979C380.127 268.946 375.684 274.175 375.684 280.312C375.684 287.211 381.267 292.803 388.154 292.803H473.735C482.387 292.803 490.139 287.101 492.37 278.725C493.4 274.866 493.989 270 493.734 263.886H410.943Z" fill="black"/>
<path d="M410.943 263.886C410.943 263.886 406.74 264.544 396.184 266.335C392.668 266.932 389.216 267.493 386.179 267.979C380.127 268.946 375.684 274.175 375.684 280.312C375.684 287.211 381.267 292.803 388.154 292.803H473.735C482.387 292.803 490.139 287.101 492.37 278.725C493.4 274.866 493.989 270 493.734 263.886H410.943Z" fill="white" fill-opacity="0.501961"/>
<path d="M455.256 293.75H449.052V382.036H455.256V293.75Z" fill="black"/>
<path d="M449.052 382.036H455.253V293.75H449.052V382.036Z" fill="white" fill-opacity="0.501961"/>
<path d="M495.741 383.376H500.705V380.855C500.705 371.666 493.241 364.193 484.071 364.193H457.892V369.165H484.071C490.505 369.165 495.744 374.41 495.744 380.859V383.379L495.741 383.376Z" fill="black"/>
<path d="M495.741 383.376H500.705V380.855C500.705 371.666 493.241 364.193 484.071 364.193H457.892V369.165H484.071C490.505 369.165 495.744 374.41 495.744 380.859V383.379L495.741 383.376Z" fill="white" fill-opacity="0.6"/>
<path d="M504.203 394.266C507.509 390.954 507.509 385.586 504.203 382.275C500.898 378.964 495.539 378.964 492.233 382.275C488.928 385.586 488.928 390.954 492.233 394.266C495.539 397.577 500.898 397.577 504.203 394.266Z" fill="black"/>
<path d="M504.202 382.276C500.896 378.964 495.537 378.964 492.231 382.276C488.925 385.588 488.925 390.956 492.231 394.268C495.537 397.58 500.896 397.58 504.202 394.268C507.508 390.956 507.508 385.588 504.202 382.276Z" fill="white" fill-opacity="0.4"/>
<path d="M493.957 388.27C493.957 390.628 495.867 392.542 498.221 392.542C500.575 392.542 502.486 390.628 502.486 388.27C502.486 385.912 500.575 383.998 498.221 383.998C495.867 383.998 493.957 385.912 493.957 388.27Z" fill="white" fill-opacity="0.501961"/>
<path d="M453.516 396.613C458.13 395.861 461.262 391.504 460.511 386.883C459.76 382.261 455.412 379.124 450.798 379.876C446.184 380.628 443.052 384.984 443.803 389.606C444.554 394.228 448.902 397.365 453.516 396.613Z" fill="black"/>
<path d="M460.514 386.882C459.763 382.26 455.414 379.123 450.8 379.876C446.186 380.628 443.055 384.984 443.806 389.607C444.557 394.229 448.906 397.365 453.52 396.613C458.134 395.86 461.266 391.504 460.514 386.882Z" fill="white" fill-opacity="0.4"/>
<path d="M456.418 388.27C456.418 385.912 454.508 383.998 452.154 383.998C449.8 383.998 447.889 385.912 447.889 388.27C447.889 390.628 449.8 392.542 452.154 392.542C454.508 392.542 456.418 390.628 456.418 388.27Z" fill="white" fill-opacity="0.501961"/>
<path d="M404.24 383.376H409.204V380.855C409.204 374.407 414.44 369.162 420.878 369.162H447.057V364.189H420.878C411.704 364.189 404.244 371.666 404.244 380.852V383.372L404.24 383.376Z" fill="black"/>
<path d="M404.24 383.376H409.204V380.855C409.204 374.407 414.44 369.162 420.878 369.162H447.057V364.189H420.878C411.704 364.189 404.244 371.666 404.244 380.852V383.372L404.24 383.376Z" fill="white" fill-opacity="0.6"/>
<path d="M414.97 390.208C416.048 385.652 413.234 381.083 408.685 380.003C404.136 378.924 399.575 381.743 398.497 386.3C397.42 390.856 400.234 395.425 404.783 396.505C409.332 397.584 413.893 394.765 414.97 390.208Z" fill="black"/>
<path d="M408.683 380.002C404.134 378.922 399.571 381.741 398.496 386.298C397.418 390.855 400.232 395.426 404.781 396.506C409.331 397.586 413.893 394.767 414.968 390.21C416.046 385.653 413.233 381.082 408.683 380.002Z" fill="white" fill-opacity="0.4"/>
<path d="M410.985 388.27C410.985 385.912 409.075 383.998 406.721 383.998C404.367 383.998 402.456 385.912 402.456 388.27C402.456 390.628 404.367 392.542 406.721 392.542C409.075 392.542 410.985 390.628 410.985 388.27Z" fill="white" fill-opacity="0.501961"/>
<path d="M457.892 358.866H446.413V375.72H457.892V358.866Z" fill="black"/>
<path d="M446.413 375.72H457.892V358.866H446.413V375.72Z" fill="white" fill-opacity="0.6"/>
<path d="M457.892 292.803H446.413V309.657H457.892V292.803Z" fill="black"/>
<path d="M446.413 309.66H457.892V292.803H446.413V309.66Z" fill="white" fill-opacity="0.6"/>
<path d="M396.582 364.18L398.852 375.72H389.465L384.145 365.506L396.582 364.18Z" fill="#B55B52"/>
<path d="M398.852 373.784C399.196 376.58 389.899 374.264 388.95 375.721C388.002 377.174 386.752 382.036 385.308 384.485C383.863 386.934 375.687 394.826 375.687 394.826H393.134L395.77 391.018L396.634 394.826H401.453C401.453 394.826 399.623 375.756 398.856 373.784H398.852Z" fill="#263238"/>
<path d="M379.204 369.168H401.446L400.047 362.318H377.805L379.204 369.168Z" fill="#263238"/>
<path d="M379.204 369.168H401.446L400.047 362.318H377.805L379.204 369.168Z" fill="white" fill-opacity="0.301961"/>
</g>
<defs>
<clipPath id="clip0_299_466">
<rect width="554" height="404" fill="white"/>
</clipPath>
</defs>
</svg>
