<svg width="201" height="71" viewBox="0 0 201 71" fill="none" xmlns="http://www.w3.org/2000/svg">
<path d="M199.143 62.2762C199.143 63.1572 198.996 64.0296 198.71 64.8435C198.425 65.6573 198.006 66.3967 197.478 67.0194C196.951 67.642 196.324 68.1357 195.634 68.4722C194.945 68.8087 194.206 68.9815 193.46 68.9805H7.47955C5.97217 68.9824 4.52588 68.2772 3.45875 67.0199C2.39162 65.7626 1.79103 64.0563 1.78906 62.2762V8.81124C1.79103 7.03032 2.39138 5.3231 3.45829 4.06445C4.52521 2.8058 5.97148 2.09861 7.47955 2.09814H193.459C194.205 2.09814 194.944 2.2718 195.634 2.60918C196.323 2.94657 196.95 3.44108 197.478 4.06447C198.005 4.68786 198.424 5.42792 198.71 6.24238C198.995 7.05684 199.142 7.92975 199.142 8.81124L199.143 62.2762Z" fill="white"/>
<path d="M193.459 70.5391H7.47847C5.62155 70.5386 3.84062 69.6682 2.52647 68.1189C1.21232 66.5696 0.472283 64.4679 0.46875 62.275L0.46875 8.81184C0.471497 6.61785 1.21104 4.51472 2.52515 2.96383C3.83926 1.41294 5.62063 0.540914 7.47847 0.539062L193.458 0.539063C195.315 0.541838 197.096 1.41416 198.41 2.96485C199.724 4.51555 200.464 6.61813 200.467 8.81184V62.275C200.47 66.8333 197.32 70.5391 193.459 70.5391Z" fill="#A6A6A6"/>
<path d="M199.143 62.2762C199.143 63.1572 198.996 64.0296 198.71 64.8435C198.425 65.6573 198.006 66.3967 197.478 67.0194C196.951 67.642 196.324 68.1357 195.634 68.4722C194.945 68.8087 194.206 68.9815 193.46 68.9805H7.47955C5.97217 68.9824 4.52588 68.2772 3.45875 67.0199C2.39162 65.7626 1.79103 64.0563 1.78906 62.2762V8.81124C1.79103 7.03032 2.39138 5.3231 3.45829 4.06445C4.52521 2.8058 5.97148 2.09861 7.47955 2.09814H193.459C194.205 2.09814 194.944 2.2718 195.634 2.60918C196.323 2.94657 196.95 3.44108 197.478 4.06447C198.005 4.68786 198.424 5.42792 198.71 6.24238C198.995 7.05684 199.142 7.92975 199.142 8.81124L199.143 62.2762Z" fill="black"/>
<path d="M45.1286 35.1702C45.0857 29.5284 49.0404 26.7836 49.2212 26.6558C46.9815 22.7995 43.51 22.2726 42.2901 22.2306C39.3744 21.8683 36.5462 24.2909 35.061 24.2909C33.5461 24.2909 31.2589 22.2656 28.7939 22.3251C25.6218 22.3829 22.6543 24.5517 21.0267 27.9197C17.6679 34.7868 20.1729 44.8783 23.391 50.4291C25.0007 53.1494 26.8817 56.1829 29.3438 56.0762C31.7525 55.9606 32.6523 54.2644 35.559 54.2644C38.4391 54.2644 39.284 56.0762 41.795 56.0079C44.3801 55.9606 46.0076 53.2772 47.5611 50.5341C49.4213 47.42 50.1684 44.3497 50.1981 44.1922C50.1388 44.1676 45.179 41.9305 45.1286 35.1702ZM40.3853 18.5791C41.6809 16.6658 42.5673 14.0629 42.3212 11.4214C40.4461 11.5194 38.1011 12.9531 36.7508 14.8243C35.5561 16.4733 34.4888 19.176 34.7645 21.7177C36.8708 21.9033 39.0335 20.4626 40.3853 18.5791Z" fill="white"/>
<path d="M193.459 0.539063H93.8418L132.86 70.5391H193.459C195.316 70.5372 197.097 69.6657 198.411 68.1155C199.725 66.5654 200.465 64.4632 200.468 62.2698V8.81184C200.465 6.61799 199.726 4.51514 198.412 2.96434C197.097 1.41355 195.316 0.541376 193.459 0.539063Z" fill="url(#paint0_linear_240_281)"/>
<path d="M80.0167 55.6857H76.6505L74.8065 48.843H68.3971L66.6406 55.6857H63.3633L69.7149 32.3903H73.637L80.0167 55.6857ZM74.2507 45.9722L72.5831 39.8893C72.4067 39.2679 72.0747 37.8045 71.5885 35.5009H71.5292C71.3335 36.4916 71.0208 37.955 70.5924 39.8893L68.953 45.9722H74.2507ZM96.3189 47.0803C96.3189 49.9371 95.6622 52.1952 94.3474 53.8529C93.1705 55.3286 91.7075 56.0655 89.9629 56.0655C88.0789 56.0655 86.7241 55.2726 85.9014 53.6831V62.4968H82.7412V44.4091C82.7412 42.6148 82.7011 40.7751 82.6241 38.888H85.4034L85.5797 41.5505H85.639C86.6929 39.5445 88.2923 38.5414 90.4387 38.5414C92.1166 38.5414 93.5174 39.3239 94.638 40.8906C95.7571 42.4608 96.3189 44.5228 96.3189 47.0803ZM93.0994 47.2168C93.0994 45.5819 92.7881 44.234 92.1626 43.1715C91.4792 42.0669 90.5617 41.5138 89.4114 41.5138C88.6318 41.5138 87.9232 41.8218 87.2903 42.4293C86.6559 43.0419 86.2408 43.8419 86.0467 44.8327C85.96 45.2032 85.9107 45.5845 85.8999 45.9687V48.7713C85.8999 49.9913 86.2171 51.0224 86.8515 51.8661C87.486 52.7063 88.3101 53.1282 89.324 53.1282C90.5143 53.1282 91.4407 52.5838 92.1033 51.5038C92.7673 50.4202 93.0994 48.9918 93.0994 47.2168ZM112.679 47.0803C112.679 49.9371 112.022 52.1952 110.707 53.8529C109.529 55.3286 108.067 56.0655 106.321 56.0655C104.437 56.0655 103.083 55.2726 102.26 53.6831V62.4968H99.0997V44.4091C99.0997 42.6148 99.0596 40.7751 98.9825 38.888H101.762L101.938 41.5505H101.998C103.05 39.5445 104.649 38.5414 106.797 38.5414C108.474 38.5414 109.874 39.3239 110.998 40.8906C112.116 42.4608 112.679 44.5228 112.679 47.0803ZM109.458 47.2168C109.458 45.5819 109.145 44.234 108.52 43.1715C107.836 42.0669 106.922 41.5138 105.771 41.5138C104.992 41.5138 104.283 41.8218 103.647 42.4293C103.013 43.0419 102.599 43.8419 102.405 44.8327C102.309 45.2948 102.257 45.6712 102.257 45.9687V48.7713C102.257 49.9913 102.576 51.0224 103.207 51.8661C103.841 52.7046 104.666 53.1282 105.682 53.1282C106.874 53.1282 107.801 52.5838 108.462 51.5038C109.126 50.4202 109.458 48.9918 109.458 47.2168ZM130.97 49.1511C130.97 51.1344 130.383 52.7466 129.217 53.9912C127.933 55.3496 126.141 56.0305 123.843 56.0305C121.721 56.0305 120.019 55.5474 118.735 54.5794L119.466 51.4688C120.852 52.4385 122.374 52.9217 124.032 52.9217C125.223 52.9217 126.15 52.6031 126.811 51.9711C127.474 51.3375 127.809 50.4902 127.809 49.4329C127.809 48.4859 127.531 47.693 126.987 47.047C126.44 46.4029 125.536 45.8024 124.266 45.251C120.812 43.7299 119.084 41.505 119.084 38.5782C119.084 36.6667 119.694 35.1017 120.913 33.8782C122.131 32.6563 123.747 32.0454 125.757 32.0454C127.552 32.0454 129.048 32.4148 130.235 33.1517L129.442 36.194C128.324 35.4799 127.063 35.1228 125.652 35.1228C124.537 35.1228 123.663 35.4466 123.037 36.0908C122.511 36.6667 122.244 37.3686 122.244 38.2019C122.244 39.1209 122.548 39.8841 123.153 40.4827C123.677 41.0341 124.635 41.6345 126.019 42.2787C127.718 43.0874 128.966 44.0292 129.765 45.111C130.57 46.1928 130.97 47.5424 130.97 49.1511ZM141.446 41.6888H137.962V49.8443C137.962 51.9186 138.576 52.9532 139.806 52.9532C140.371 52.9532 140.839 52.8971 141.21 52.7799L141.297 55.6139C140.675 55.8887 139.855 56.027 138.84 56.027C137.592 56.027 136.616 55.5771 135.912 54.6774C135.211 53.7776 134.858 52.2705 134.858 50.1489V41.6818H132.783V38.881H134.858V35.8054L137.962 34.6991V38.881H141.446V41.6888ZM157.131 47.1486C157.131 49.7305 156.506 51.8504 155.257 53.5081C153.952 55.2148 152.214 56.0655 150.049 56.0655C147.959 56.0655 146.297 55.248 145.058 53.6148C143.819 51.9781 143.199 49.9161 143.199 47.4286C143.199 44.8257 143.839 42.6936 145.116 41.0359C146.395 39.3764 148.117 38.5467 150.283 38.5467C152.37 38.5467 154.046 39.3659 155.315 41.0009C156.528 42.5868 157.131 44.6349 157.131 47.1486ZM153.855 47.2343C153.855 45.6957 153.574 44.3758 153.009 43.2712C152.346 41.9374 151.398 41.2704 150.169 41.2704C148.903 41.2704 147.932 41.9374 147.271 43.2712C146.705 44.3758 146.423 45.7184 146.423 47.3044C146.423 48.8448 146.705 50.1681 147.271 51.2692C147.954 52.6031 148.907 53.27 150.142 53.27C151.35 53.27 152.297 52.5891 152.982 51.2359C153.563 50.1051 153.855 48.7765 153.855 47.2343ZM167.408 42.1702C167.079 42.1001 166.746 42.0656 166.412 42.0669C165.3 42.0669 164.44 42.5606 163.835 43.5548C163.311 44.4301 163.047 45.5364 163.047 46.872V55.6857H159.887V44.178C159.889 42.4147 159.859 40.6515 159.795 38.8898H162.547L162.663 42.1037H162.75C163.085 40.9991 163.61 40.1081 164.33 39.4412C164.99 38.8584 165.791 38.5428 166.615 38.5414C166.907 38.5414 167.171 38.566 167.405 38.6097L167.408 42.1702ZM181.541 46.4921C181.549 47.0595 181.511 47.6264 181.426 48.1848H171.945C171.981 49.8443 172.44 51.1152 173.321 51.9904C174.119 52.7711 175.153 53.1632 176.421 53.1632C177.825 53.1632 179.106 52.9006 180.258 52.3703L180.753 54.9592C179.407 55.6524 177.818 55.9972 175.984 55.9972C173.779 55.9972 172.047 55.2305 170.787 53.7006C169.53 52.1689 168.9 50.1104 168.9 47.5319C168.9 45.0007 169.486 42.8914 170.658 41.2092C171.886 39.4132 173.544 38.5152 175.631 38.5152C177.681 38.5152 179.233 39.4132 180.287 41.2092C181.122 42.6323 181.541 44.3968 181.541 46.4921ZM178.528 45.5241C178.55 44.4161 178.343 43.462 177.914 42.6551C177.367 41.6153 176.525 41.0971 175.397 41.0971C174.364 41.0971 173.522 41.603 172.882 42.6183C172.356 43.4253 172.043 44.3951 171.946 45.5206L178.528 45.5241Z" fill="white"/>
<path d="M67.4852 24.1556C66.6062 24.1556 65.8458 24.1048 65.2129 24.019V12.7564C66.0981 12.595 66.9927 12.5154 67.8884 12.5184C71.5126 12.5184 73.1816 14.6242 73.1816 18.0569C73.1816 22.0165 71.2102 24.1556 67.4852 24.1556ZM68.0159 13.9625C67.5267 13.9625 67.1102 13.9975 66.7648 14.0816V22.6432C66.9516 22.6782 67.3103 22.6939 67.8143 22.6939C70.1889 22.6939 71.5408 21.0975 71.5408 18.1077C71.5408 15.4417 70.3179 13.9625 68.0159 13.9625ZM78.383 24.2414C76.3404 24.2414 75.0167 22.4401 75.0167 19.9947C75.0167 17.446 76.3685 15.629 78.4986 15.629C80.5115 15.629 81.8649 17.3445 81.8649 19.8599C81.8649 22.4401 80.47 24.2414 78.383 24.2414ZM78.4423 16.9699C77.3202 16.9699 76.6013 18.2092 76.6013 19.9422C76.6013 21.6419 77.335 22.8812 78.4274 22.8812C79.5199 22.8812 80.2536 21.5561 80.2536 19.9072C80.2536 18.2267 79.5347 16.9699 78.4423 16.9699ZM93.5126 15.7988L91.3263 24.0541H89.9018L88.9961 20.4691C88.7709 19.5922 88.5834 18.7024 88.4343 17.8031H88.4047C88.2906 18.7028 88.0741 19.6043 87.8444 20.4691L86.8809 24.0541H85.4416L83.3842 15.7988H84.9806L85.7722 19.7234C85.9589 20.6581 86.116 21.5404 86.2465 22.3736H86.2761C86.3903 21.6787 86.577 20.8104 86.8513 19.7409L87.8444 15.8005H89.1103L90.0604 19.6568C90.2902 20.5916 90.4769 21.5089 90.6222 22.3753H90.6637C90.7645 21.5264 90.9231 20.6249 91.138 19.6568L91.9874 15.8005L93.5126 15.7988ZM101.561 24.0541H100.008V19.3138C100.008 17.8539 99.5337 17.1221 98.5983 17.1221C97.6778 17.1221 97.0449 18.0569 97.0449 19.144V24.0541H95.4915V18.1584C95.4915 17.4285 95.4767 16.646 95.4337 15.797H96.8003L96.873 17.0714H96.916C97.334 16.1891 98.1818 15.629 99.132 15.629C100.599 15.629 101.563 16.9541 101.563 19.1107L101.561 24.0541ZM105.845 24.0541H104.29V12.0107H105.845V24.0541ZM111.509 24.2414C109.468 24.2414 108.143 22.4401 108.143 19.9947C108.143 17.446 109.495 15.629 111.623 15.629C113.638 15.629 114.989 17.3445 114.989 19.8599C114.991 22.4401 113.595 24.2414 111.509 24.2414ZM111.567 16.9699C110.445 16.9699 109.726 18.2092 109.726 19.9422C109.726 21.6419 110.461 22.8812 111.551 22.8812C112.644 22.8812 113.377 21.5561 113.377 19.9072C113.378 18.2267 112.661 16.9699 111.567 16.9699ZM121.114 24.0541L121.002 23.1035H120.96C120.486 23.8685 119.794 24.2414 118.916 24.2414C117.663 24.2414 116.774 23.2051 116.774 21.8117C116.774 19.7741 118.27 18.7203 120.859 18.7203V18.568C120.859 17.481 120.372 16.9366 119.408 16.9366C118.719 16.9366 118.114 17.1414 117.582 17.5493L117.266 16.3432C117.912 15.8671 118.719 15.629 119.666 15.629C121.492 15.629 122.414 16.7668 122.414 19.0442V22.0848C122.414 22.918 122.445 23.5639 122.515 24.0558L121.114 24.0541ZM120.901 19.9422C119.175 19.9422 118.31 20.4358 118.31 21.6069C118.31 22.4734 118.756 22.897 119.376 22.897C120.166 22.897 120.901 22.1845 120.901 21.2165V19.9422ZM129.958 24.0541L129.885 22.7289H129.842C129.396 23.7302 128.646 24.2414 127.598 24.2414C125.912 24.2414 124.664 22.4909 124.664 20.0279C124.664 17.446 125.958 15.6272 127.725 15.6272C128.661 15.6272 129.323 16.0001 129.697 16.7493H129.728V12.0107H131.283V21.8292C131.283 22.6274 131.299 23.3749 131.341 24.0541H129.958ZM129.728 19.1965C129.728 18.0412 129.08 17.0556 128.091 17.0556C126.94 17.0556 126.236 18.2617 126.236 19.9597C126.236 21.6244 126.966 22.764 128.06 22.764C129.037 22.764 129.728 21.7609 129.728 20.5723V19.1965ZM141.141 24.2414C139.1 24.2414 137.777 22.4401 137.777 19.9947C137.777 17.446 139.128 15.629 141.257 15.629C143.271 15.629 144.623 17.3445 144.623 19.8599C144.625 22.4401 143.23 24.2414 141.141 24.2414ZM141.199 16.9699C140.079 16.9699 139.36 18.2092 139.36 19.9422C139.36 21.6419 140.093 22.8812 141.184 22.8812C142.278 22.8812 143.011 21.5561 143.011 19.9072C143.013 18.2267 142.295 16.9699 141.199 16.9699ZM152.977 24.0541H151.422V19.3138C151.422 17.8539 150.948 17.1221 150.013 17.1221C149.092 17.1221 148.461 18.0569 148.461 19.144V24.0541H146.906V18.1584C146.906 17.4285 146.891 16.646 146.848 15.797H148.215L148.287 17.0714H148.33C148.747 16.1891 149.596 15.6272 150.545 15.6272C152.012 15.6272 152.977 16.9524 152.977 19.1089V24.0541ZM163.429 17.1747H161.72V21.1833C161.72 22.2038 162.019 22.7132 162.624 22.7132C162.898 22.7132 163.128 22.6782 163.313 22.6274L163.356 24.0208C163.055 24.1573 162.652 24.2256 162.151 24.2256C160.927 24.2256 160.195 23.4274 160.195 21.3373V17.1747H159.175V15.7988H160.195V14.2864L161.72 13.742V15.797H163.429V17.1747ZM171.653 24.0541H170.101V19.3488C170.101 17.8714 169.628 17.1239 168.691 17.1239C167.886 17.1239 167.136 17.7698 167.136 19.0774V24.0541H165.584V12.0107H167.136V16.9699H167.167C167.656 16.0701 168.365 15.6272 169.269 15.6272C170.748 15.6272 171.653 16.9856 171.653 19.144V24.0541ZM180.078 20.3675H175.416C175.446 21.9307 176.322 22.813 177.619 22.813C178.308 22.813 178.943 22.6764 179.503 22.4226L179.744 23.697C179.083 24.0366 178.305 24.2063 177.399 24.2063C175.213 24.2063 173.919 22.5749 173.919 20.0455C173.919 17.5143 175.244 15.6115 177.225 15.6115C179.011 15.6115 180.131 17.1747 180.131 19.5361C180.141 19.8147 180.123 20.0938 180.078 20.3675ZM178.653 19.0599C178.653 17.7856 178.109 16.8858 177.116 16.8858C176.224 16.8858 175.518 17.8031 175.418 19.0599H178.653Z" fill="white"/>
<defs>
<linearGradient id="paint0_linear_240_281" x1="147.153" y1="70.7249" x2="147.153" y2="-181.729" gradientUnits="userSpaceOnUse">
<stop stop-color="#1A1A1A" stop-opacity="0.1"/>
<stop offset="0.123" stop-color="#212121" stop-opacity="0.151"/>
<stop offset="0.308" stop-color="#353535" stop-opacity="0.227"/>
<stop offset="0.532" stop-color="#575757" stop-opacity="0.318"/>
<stop offset="0.783" stop-color="#858585" stop-opacity="0.421"/>
<stop offset="1" stop-color="#B3B3B3" stop-opacity="0.51"/>
</linearGradient>
</defs>
</svg>
