<svg width="40" height="40" viewBox="0 0 40 40" fill="none" xmlns="http://www.w3.org/2000/svg">
<mask id="mask0_279_42" style="mask-type:alpha" maskUnits="userSpaceOnUse" x="0" y="0" width="40" height="40">
<rect width="40" height="40" fill="#D9D9D9"/>
</mask>
<g mask="url(#mask0_279_42)">
<path d="M19.8228 18.1205C18.5884 18.3281 17.5103 19.7072 17.4999 19.7196C17.4844 19.7388 17.4669 19.7554 17.4478 19.7692C15.7707 21.0647 14.8254 20.0791 14.7863 20.0203C13.7134 18.8705 14.6978 16.9428 14.7395 16.8622C15.179 15.9929 15.7112 15.195 16.3228 14.4883H11.7681L9.79152 22.2486C9.81275 22.2626 9.83207 22.2803 9.84881 22.3012C12.9165 26.4293 16.9895 30.0925 18.5963 31.4747C18.7635 31.6219 18.9714 31.688 19.178 31.6596C19.3846 31.6312 19.5745 31.5105 19.7091 31.3219C19.8438 31.1333 19.9132 30.8909 19.9034 30.6436C19.8936 30.3964 19.8052 30.1629 19.6562 29.9902L17.4452 27.359C17.3967 27.301 17.3695 27.2224 17.3695 27.1406C17.3695 27.0587 17.3967 26.9801 17.4452 26.9221C17.4694 26.893 17.4982 26.87 17.53 26.8542C17.5617 26.8385 17.5957 26.8304 17.6301 26.8304C17.6645 26.8304 17.6985 26.8385 17.7303 26.8542C17.762 26.87 17.7908 26.893 17.815 26.9221L18.9921 28.3229L20.0338 29.5625L20.5546 30.1979C20.7414 30.4144 20.9921 30.5353 21.2529 30.5345C21.5138 30.5338 21.7639 30.4115 21.9499 30.1938C22.1358 29.9762 22.2428 29.6805 22.2477 29.3702C22.2527 29.0598 22.1553 28.7595 21.9765 28.5336L19.9478 26.014L19.5624 25.5398C19.538 25.511 19.5186 25.4768 19.5054 25.439C19.4922 25.4012 19.4854 25.3607 19.4854 25.3198C19.4854 25.2789 19.4922 25.2384 19.5054 25.2006C19.5186 25.1629 19.538 25.1286 19.5624 25.0998C19.5866 25.0707 19.6154 25.0477 19.6472 25.0319C19.6789 25.0162 19.7129 25.0081 19.7473 25.0081C19.7817 25.0081 19.8157 25.0162 19.8475 25.0319C19.8792 25.0477 19.908 25.0707 19.9322 25.0998L22.8932 28.7568C23.0365 28.9256 23.218 29.0413 23.4156 29.0898C23.6132 29.1383 23.8183 29.1174 24.0061 29.0298C24.1939 28.9422 24.3563 28.7915 24.4736 28.5962C24.5908 28.4008 24.6579 28.1691 24.6666 27.9293C24.6709 27.7603 24.6453 27.5922 24.5915 27.4357C24.5377 27.2793 24.4568 27.1381 24.3541 27.0212L22.578 24.9758L21.3411 23.5471C21.3135 23.5198 21.291 23.4859 21.275 23.4478C21.2589 23.4096 21.2497 23.3679 21.2478 23.3253C21.246 23.2827 21.2515 23.24 21.2641 23.2001C21.2767 23.1601 21.2962 23.1237 21.3212 23.0931C21.3461 23.0625 21.3762 23.0384 21.4094 23.0222C21.4426 23.0061 21.4782 22.9983 21.5141 22.9993C21.5499 23.0003 21.5852 23.0101 21.6177 23.0281C21.6503 23.0461 21.6793 23.0719 21.703 23.1039L25.2187 27.1545C25.3109 27.2672 25.4213 27.3565 25.5433 27.4171C25.6653 27.4776 25.7963 27.5082 25.9285 27.5069C26.0606 27.5056 26.1912 27.4724 26.3123 27.4094C26.4334 27.3464 26.5426 27.2549 26.6332 27.1404C26.7238 27.0259 26.794 26.8907 26.8395 26.7431C26.885 26.5954 26.905 26.4383 26.8981 26.2812C26.8913 26.1241 26.8578 25.9703 26.7996 25.8291C26.7415 25.6878 26.6599 25.562 26.5598 25.4593L19.8228 18.1205ZM10.9738 12.6722C9.62188 11.9489 8.14772 11.6073 6.6665 11.6743V23.8291H8.25766C8.42748 23.8296 8.59281 23.7642 8.72861 23.6429C8.86441 23.5215 8.96328 23.3508 9.01027 23.1566L11.4009 13.7879C11.4555 13.5719 11.4424 13.3396 11.3638 13.1344C11.2852 12.9291 11.1466 12.7649 10.9738 12.6722Z" fill="#0385C3"/>
<path d="M20.6665 13.2738C20.1049 12.9986 19.4774 12.9821 18.9061 13.2273C17.9087 13.6612 16.453 14.7025 15.1743 17.188C15.1743 17.2066 14.3748 18.7376 15.1274 19.5619C15.1535 19.5898 15.8254 20.2592 17.1275 19.2706C17.315 19.0382 18.4894 17.6374 19.8775 17.4855C19.9133 17.4819 19.9495 17.4872 19.9835 17.5011C20.0176 17.515 20.0489 17.5371 20.0754 17.5661L26.9009 25.004C26.9322 25.0381 26.9608 25.0753 26.9895 25.1125C27.7707 24.97 28.2916 24.1208 28.4426 23.8109L25.9687 15.7872L20.6665 13.2738ZM31.1458 13.1529C29.6604 13.1412 28.1871 13.4716 26.8072 14.126C26.6216 14.2207 26.4741 14.3971 26.3954 14.6184C26.3168 14.8397 26.3131 15.0886 26.3853 15.313L29.2838 24.7003C29.3404 24.8814 29.4419 25.0377 29.575 25.1484C29.708 25.2592 29.8662 25.3191 30.0286 25.3202H31.6666V13.1684C31.5364 13.1591 31.3567 13.1529 31.1458 13.1529Z" fill="#0385C3"/>
</g>
</svg>
