<svg width="163" height="109" viewBox="0 0 163 109" fill="none" xmlns="http://www.w3.org/2000/svg">
<g filter="url(#filter0_d_1416_137366)">
<rect x="45" y="50" width="93" height="29" rx="5" fill="#2352DE"/>
<path d="M64.228 59.27C65.264 59.27 66.1693 59.4707 66.944 59.872C67.728 60.264 68.33 60.8333 68.75 61.58C69.1793 62.3173 69.394 63.1807 69.394 64.17C69.394 65.1593 69.1793 66.018 68.75 66.746C68.33 67.474 67.728 68.034 66.944 68.426C66.1693 68.8087 65.264 69 64.228 69H61.05V59.27H64.228ZM64.228 67.698C65.3667 67.698 66.2393 67.39 66.846 66.774C67.4527 66.158 67.756 65.29 67.756 64.17C67.756 63.0407 67.4527 62.1587 66.846 61.524C66.2393 60.8893 65.3667 60.572 64.228 60.572H62.646V67.698H64.228ZM78.0458 64.954C78.0458 65.2433 78.0271 65.5047 77.9898 65.738H72.0958C72.1424 66.354 72.3711 66.8487 72.7818 67.222C73.1924 67.5953 73.6964 67.782 74.2938 67.782C75.1524 67.782 75.7591 67.4227 76.1138 66.704H77.8358C77.6024 67.4133 77.1778 67.9967 76.5618 68.454C75.9551 68.902 75.1991 69.126 74.2938 69.126C73.5564 69.126 72.8938 68.9627 72.3058 68.636C71.7271 68.3 71.2698 67.8333 70.9338 67.236C70.6071 66.6293 70.4438 65.9293 70.4438 65.136C70.4438 64.3427 70.6024 63.6473 70.9198 63.05C71.2464 62.4433 71.6991 61.9767 72.2778 61.65C72.8658 61.3233 73.5378 61.16 74.2938 61.16C75.0218 61.16 75.6704 61.3187 76.2398 61.636C76.8091 61.9533 77.2524 62.4013 77.5698 62.98C77.8871 63.5493 78.0458 64.2073 78.0458 64.954ZM76.3798 64.45C76.3704 63.862 76.1604 63.3907 75.7498 63.036C75.3391 62.6813 74.8304 62.504 74.2238 62.504C73.6731 62.504 73.2018 62.6813 72.8098 63.036C72.4178 63.3813 72.1844 63.8527 72.1098 64.45H76.3798ZM82.4164 69.126C81.8097 69.126 81.2637 69.0187 80.7784 68.804C80.3024 68.58 79.9244 68.2813 79.6444 67.908C79.3644 67.5253 79.2151 67.1007 79.1964 66.634H80.8484C80.8764 66.9607 81.0304 67.236 81.3104 67.46C81.5997 67.6747 81.9591 67.782 82.3884 67.782C82.8364 67.782 83.1817 67.698 83.4244 67.53C83.6764 67.3527 83.8024 67.1287 83.8024 66.858C83.8024 66.5687 83.6624 66.354 83.3824 66.214C83.1117 66.074 82.6777 65.92 82.0804 65.752C81.5017 65.5933 81.0304 65.4393 80.6664 65.29C80.3024 65.1407 79.9851 64.912 79.7144 64.604C79.4531 64.296 79.3224 63.89 79.3224 63.386C79.3224 62.9753 79.4437 62.602 79.6864 62.266C79.9291 61.9207 80.2744 61.65 80.7224 61.454C81.1797 61.258 81.7024 61.16 82.2904 61.16C83.1677 61.16 83.8724 61.384 84.4044 61.832C84.9457 62.2707 85.2351 62.8727 85.2724 63.638H83.6764C83.6484 63.2927 83.5084 63.0173 83.2564 62.812C83.0044 62.6067 82.6637 62.504 82.2344 62.504C81.8144 62.504 81.4924 62.5833 81.2684 62.742C81.0444 62.9007 80.9324 63.1107 80.9324 63.372C80.9324 63.5773 81.0071 63.75 81.1564 63.89C81.3057 64.03 81.4877 64.142 81.7024 64.226C81.9171 64.3007 82.2344 64.3987 82.6544 64.52C83.2144 64.6693 83.6717 64.8233 84.0264 64.982C84.3904 65.1313 84.7031 65.3553 84.9644 65.654C85.2257 65.9527 85.3611 66.3493 85.3704 66.844C85.3704 67.2827 85.2491 67.6747 85.0064 68.02C84.7637 68.3653 84.4184 68.636 83.9704 68.832C83.5317 69.028 83.0137 69.126 82.4164 69.126ZM87.9069 60.264C87.6176 60.264 87.3749 60.166 87.1789 59.97C86.9829 59.774 86.8849 59.5313 86.8849 59.242C86.8849 58.9527 86.9829 58.71 87.1789 58.514C87.3749 58.318 87.6176 58.22 87.9069 58.22C88.1869 58.22 88.4249 58.318 88.6209 58.514C88.8169 58.71 88.9149 58.9527 88.9149 59.242C88.9149 59.5313 88.8169 59.774 88.6209 59.97C88.4249 60.166 88.1869 60.264 87.9069 60.264ZM88.6909 61.286V69H87.0949V61.286H88.6909ZM93.8943 61.16C94.4917 61.16 95.019 61.2813 95.4763 61.524C95.943 61.7573 96.307 62.0513 96.5683 62.406V61.286H98.1783V69.126C98.1783 69.8353 98.029 70.4653 97.7303 71.016C97.4317 71.576 96.9977 72.0147 96.4283 72.332C95.8683 72.6493 95.1963 72.808 94.4123 72.808C93.367 72.808 92.499 72.5607 91.8083 72.066C91.1177 71.5807 90.7257 70.918 90.6323 70.078H92.2143C92.3357 70.4793 92.5923 70.8013 92.9843 71.044C93.3857 71.296 93.8617 71.422 94.4123 71.422C95.0563 71.422 95.5743 71.226 95.9663 70.834C96.3677 70.442 96.5683 69.8727 96.5683 69.126V67.838C96.2977 68.202 95.929 68.51 95.4623 68.762C95.005 69.0047 94.4823 69.126 93.8943 69.126C93.2223 69.126 92.6063 68.958 92.0463 68.622C91.4957 68.2767 91.057 67.8007 90.7303 67.194C90.413 66.578 90.2543 65.8827 90.2543 65.108C90.2543 64.3333 90.413 63.6473 90.7303 63.05C91.057 62.4527 91.4957 61.9907 92.0463 61.664C92.6063 61.328 93.2223 61.16 93.8943 61.16ZM96.5683 65.136C96.5683 64.604 96.4563 64.142 96.2323 63.75C96.0177 63.358 95.733 63.0593 95.3783 62.854C95.0237 62.6487 94.641 62.546 94.2303 62.546C93.8197 62.546 93.437 62.6487 93.0823 62.854C92.7277 63.05 92.4383 63.344 92.2143 63.736C91.9997 64.1187 91.8923 64.576 91.8923 65.108C91.8923 65.64 91.9997 66.1067 92.2143 66.508C92.4383 66.9093 92.7277 67.2173 93.0823 67.432C93.4463 67.6373 93.829 67.74 94.2303 67.74C94.641 67.74 95.0237 67.6373 95.3783 67.432C95.733 67.2267 96.0177 66.928 96.2323 66.536C96.4563 66.1347 96.5683 65.668 96.5683 65.136ZM104.167 61.16C104.773 61.16 105.315 61.286 105.791 61.538C106.276 61.79 106.654 62.1633 106.925 62.658C107.195 63.1527 107.331 63.75 107.331 64.45V69H105.749V64.688C105.749 63.9973 105.576 63.47 105.231 63.106C104.885 62.7327 104.414 62.546 103.817 62.546C103.219 62.546 102.743 62.7327 102.389 63.106C102.043 63.47 101.871 63.9973 101.871 64.688V69H100.275V61.286H101.871V62.168C102.132 61.8507 102.463 61.6033 102.865 61.426C103.275 61.2487 103.709 61.16 104.167 61.16ZM116.436 64.954C116.436 65.2433 116.418 65.5047 116.38 65.738H110.486C110.533 66.354 110.762 66.8487 111.172 67.222C111.583 67.5953 112.087 67.782 112.684 67.782C113.543 67.782 114.15 67.4227 114.504 66.704H116.226C115.993 67.4133 115.568 67.9967 114.952 68.454C114.346 68.902 113.59 69.126 112.684 69.126C111.947 69.126 111.284 68.9627 110.696 68.636C110.118 68.3 109.66 67.8333 109.324 67.236C108.998 66.6293 108.834 65.9293 108.834 65.136C108.834 64.3427 108.993 63.6473 109.31 63.05C109.637 62.4433 110.09 61.9767 110.668 61.65C111.256 61.3233 111.928 61.16 112.684 61.16C113.412 61.16 114.061 61.3187 114.63 61.636C115.2 61.9533 115.643 62.4013 115.96 62.98C116.278 63.5493 116.436 64.2073 116.436 64.954ZM114.77 64.45C114.761 63.862 114.551 63.3907 114.14 63.036C113.73 62.6813 113.221 62.504 112.614 62.504C112.064 62.504 111.592 62.6813 111.2 63.036C110.808 63.3813 110.575 63.8527 110.5 64.45H114.77ZM119.603 62.406C119.836 62.014 120.144 61.7107 120.527 61.496C120.919 61.272 121.381 61.16 121.913 61.16V62.812H121.507C120.882 62.812 120.406 62.9707 120.079 63.288C119.762 63.6053 119.603 64.156 119.603 64.94V69H118.007V61.286H119.603V62.406Z" fill="white"/>
<path d="M39.541 26.6064L34.0772 29.0943L31.5939 34.5683C31.534 34.7004 31.4365 34.8119 31.3136 34.8886C31.1906 34.9654 31.0478 35.004 30.9031 34.9997C30.7583 34.9953 30.618 34.9482 30.4999 34.8643C30.3818 34.7804 30.2911 34.6633 30.2391 34.5278L25.0449 20.9954C24.9965 20.8627 24.987 20.7189 25.0175 20.581C25.048 20.4431 25.1172 20.3167 25.2169 20.2169C25.3166 20.117 25.4428 20.0478 25.5805 20.0174C25.7182 19.987 25.8617 19.9966 25.9941 20.0451L39.5014 25.2491C39.635 25.3027 39.75 25.3943 39.8324 25.5126C39.9148 25.6308 39.9609 25.7706 39.9651 25.9147C39.9693 26.0588 39.9314 26.2011 39.8561 26.3239C39.7808 26.4468 39.6713 26.545 39.541 26.6064Z" fill="#2352DE"/>
</g>
<defs>
<filter id="filter0_d_1416_137366" x="0" y="0" width="163" height="109" filterUnits="userSpaceOnUse" color-interpolation-filters="sRGB">
<feFlood flood-opacity="0" result="BackgroundImageFix"/>
<feColorMatrix in="SourceAlpha" type="matrix" values="0 0 0 0 0 0 0 0 0 0 0 0 0 0 0 0 0 0 127 0" result="hardAlpha"/>
<feOffset dy="5"/>
<feGaussianBlur stdDeviation="12.5"/>
<feComposite in2="hardAlpha" operator="out"/>
<feColorMatrix type="matrix" values="0 0 0 0 0 0 0 0 0 0 0 0 0 0 0 0 0 0 0.2 0"/>
<feBlend mode="normal" in2="BackgroundImageFix" result="effect1_dropShadow_1416_137366"/>
<feBlend mode="normal" in="SourceGraphic" in2="effect1_dropShadow_1416_137366" result="shape"/>
</filter>
</defs>
</svg>
