<svg width="172" height="109" viewBox="0 0 172 109" fill="none" xmlns="http://www.w3.org/2000/svg">
<g filter="url(#filter0_d_1416_137360)">
<rect x="45" y="50" width="102" height="29" rx="5" fill="#FD4208"/>
<path d="M64.228 59.27C65.264 59.27 66.1693 59.4707 66.944 59.872C67.728 60.264 68.33 60.8333 68.75 61.58C69.1793 62.3173 69.394 63.1807 69.394 64.17C69.394 65.1593 69.1793 66.018 68.75 66.746C68.33 67.474 67.728 68.034 66.944 68.426C66.1693 68.8087 65.264 69 64.228 69H61.05V59.27H64.228ZM64.228 67.698C65.3667 67.698 66.2393 67.39 66.846 66.774C67.4527 66.158 67.756 65.29 67.756 64.17C67.756 63.0407 67.4527 62.1587 66.846 61.524C66.2393 60.8893 65.3667 60.572 64.228 60.572H62.646V67.698H64.228ZM78.0458 64.954C78.0458 65.2433 78.0271 65.5047 77.9898 65.738H72.0958C72.1424 66.354 72.3711 66.8487 72.7818 67.222C73.1924 67.5953 73.6964 67.782 74.2938 67.782C75.1524 67.782 75.7591 67.4227 76.1138 66.704H77.8358C77.6024 67.4133 77.1778 67.9967 76.5618 68.454C75.9551 68.902 75.1991 69.126 74.2938 69.126C73.5564 69.126 72.8938 68.9627 72.3058 68.636C71.7271 68.3 71.2698 67.8333 70.9338 67.236C70.6071 66.6293 70.4438 65.9293 70.4438 65.136C70.4438 64.3427 70.6024 63.6473 70.9198 63.05C71.2464 62.4433 71.6991 61.9767 72.2778 61.65C72.8658 61.3233 73.5378 61.16 74.2938 61.16C75.0218 61.16 75.6704 61.3187 76.2398 61.636C76.8091 61.9533 77.2524 62.4013 77.5698 62.98C77.8871 63.5493 78.0458 64.2073 78.0458 64.954ZM76.3798 64.45C76.3704 63.862 76.1604 63.3907 75.7498 63.036C75.3391 62.6813 74.8304 62.504 74.2238 62.504C73.6731 62.504 73.2018 62.6813 72.8098 63.036C72.4178 63.3813 72.1844 63.8527 72.1098 64.45H76.3798ZM82.5984 67.572L84.7824 61.286H86.4764L83.5364 69H81.6324L78.7064 61.286H80.4144L82.5984 67.572ZM94.7528 64.954C94.7528 65.2433 94.7341 65.5047 94.6968 65.738H88.8028C88.8495 66.354 89.0781 66.8487 89.4888 67.222C89.8995 67.5953 90.4035 67.782 91.0008 67.782C91.8595 67.782 92.4661 67.4227 92.8208 66.704H94.5428C94.3095 67.4133 93.8848 67.9967 93.2688 68.454C92.6621 68.902 91.9061 69.126 91.0008 69.126C90.2635 69.126 89.6008 68.9627 89.0128 68.636C88.4341 68.3 87.9768 67.8333 87.6408 67.236C87.3141 66.6293 87.1508 65.9293 87.1508 65.136C87.1508 64.3427 87.3095 63.6473 87.6268 63.05C87.9535 62.4433 88.4061 61.9767 88.9848 61.65C89.5728 61.3233 90.2448 61.16 91.0008 61.16C91.7288 61.16 92.3775 61.3187 92.9468 61.636C93.5161 61.9533 93.9595 62.4013 94.2768 62.98C94.5941 63.5493 94.7528 64.2073 94.7528 64.954ZM93.0868 64.45C93.0775 63.862 92.8675 63.3907 92.4568 63.036C92.0461 62.6813 91.5375 62.504 90.9308 62.504C90.3801 62.504 89.9088 62.6813 89.5168 63.036C89.1248 63.3813 88.8915 63.8527 88.8168 64.45H93.0868ZM97.9194 58.64V69H96.3234V58.64H97.9194ZM103.361 69.126C102.633 69.126 101.975 68.9627 101.387 68.636C100.799 68.3 100.337 67.8333 100.001 67.236C99.6648 66.6293 99.4968 65.9293 99.4968 65.136C99.4968 64.352 99.6695 63.6567 100.015 63.05C100.36 62.4433 100.832 61.9767 101.429 61.65C102.026 61.3233 102.694 61.16 103.431 61.16C104.168 61.16 104.836 61.3233 105.433 61.65C106.03 61.9767 106.502 62.4433 106.847 63.05C107.192 63.6567 107.365 64.352 107.365 65.136C107.365 65.92 107.188 66.6153 106.833 67.222C106.478 67.8287 105.993 68.3 105.377 68.636C104.77 68.9627 104.098 69.126 103.361 69.126ZM103.361 67.74C103.772 67.74 104.154 67.642 104.509 67.446C104.873 67.25 105.167 66.956 105.391 66.564C105.615 66.172 105.727 65.696 105.727 65.136C105.727 64.576 105.62 64.1047 105.405 63.722C105.19 63.33 104.906 63.036 104.551 62.84C104.196 62.644 103.814 62.546 103.403 62.546C102.992 62.546 102.61 62.644 102.255 62.84C101.91 63.036 101.634 63.33 101.429 63.722C101.224 64.1047 101.121 64.576 101.121 65.136C101.121 65.9667 101.331 66.6107 101.751 67.068C102.18 67.516 102.717 67.74 103.361 67.74ZM110.539 62.42C110.809 62.0653 111.178 61.7667 111.645 61.524C112.111 61.2813 112.639 61.16 113.227 61.16C113.899 61.16 114.51 61.328 115.061 61.664C115.621 61.9907 116.059 62.4527 116.377 63.05C116.694 63.6473 116.853 64.3333 116.853 65.108C116.853 65.8827 116.694 66.578 116.377 67.194C116.059 67.8007 115.621 68.2767 115.061 68.622C114.51 68.958 113.899 69.126 113.227 69.126C112.639 69.126 112.116 69.0093 111.659 68.776C111.201 68.5333 110.828 68.2347 110.539 67.88V72.668H108.943V61.286H110.539V62.42ZM115.229 65.108C115.229 64.576 115.117 64.1187 114.893 63.736C114.678 63.344 114.389 63.05 114.025 62.854C113.67 62.6487 113.287 62.546 112.877 62.546C112.475 62.546 112.093 62.6487 111.729 62.854C111.374 63.0593 111.085 63.358 110.861 63.75C110.646 64.142 110.539 64.604 110.539 65.136C110.539 65.668 110.646 66.1347 110.861 66.536C111.085 66.928 111.374 67.2267 111.729 67.432C112.093 67.6373 112.475 67.74 112.877 67.74C113.287 67.74 113.67 67.6373 114.025 67.432C114.389 67.2173 114.678 66.9093 114.893 66.508C115.117 66.1067 115.229 65.64 115.229 65.108ZM125.501 64.954C125.501 65.2433 125.482 65.5047 125.445 65.738H119.551C119.598 66.354 119.826 66.8487 120.237 67.222C120.648 67.5953 121.152 67.782 121.749 67.782C122.608 67.782 123.214 67.4227 123.569 66.704H125.291C125.058 67.4133 124.633 67.9967 124.017 68.454C123.41 68.902 122.654 69.126 121.749 69.126C121.012 69.126 120.349 68.9627 119.761 68.636C119.182 68.3 118.725 67.8333 118.389 67.236C118.062 66.6293 117.899 65.9293 117.899 65.136C117.899 64.3427 118.058 63.6473 118.375 63.05C118.702 62.4433 119.154 61.9767 119.733 61.65C120.321 61.3233 120.993 61.16 121.749 61.16C122.477 61.16 123.126 61.3187 123.695 61.636C124.264 61.9533 124.708 62.4013 125.025 62.98C125.342 63.5493 125.501 64.2073 125.501 64.954ZM123.835 64.45C123.826 63.862 123.616 63.3907 123.205 63.036C122.794 62.6813 122.286 62.504 121.679 62.504C121.128 62.504 120.657 62.6813 120.265 63.036C119.873 63.3813 119.64 63.8527 119.565 64.45H123.835ZM128.667 62.406C128.901 62.014 129.209 61.7107 129.591 61.496C129.983 61.272 130.445 61.16 130.977 61.16V62.812H130.571C129.946 62.812 129.47 62.9707 129.143 63.288C128.826 63.6053 128.667 64.156 128.667 64.94V69H127.071V61.286H128.667V62.406Z" fill="white"/>
<path d="M39.541 26.6064L34.0772 29.0943L31.5939 34.5683C31.534 34.7004 31.4365 34.8119 31.3136 34.8886C31.1906 34.9654 31.0478 35.004 30.9031 34.9997C30.7583 34.9953 30.618 34.9482 30.4999 34.8643C30.3818 34.7804 30.2911 34.6633 30.2391 34.5278L25.0449 20.9954C24.9965 20.8627 24.987 20.7189 25.0175 20.581C25.048 20.4431 25.1172 20.3167 25.2169 20.2169C25.3166 20.117 25.4428 20.0478 25.5805 20.0174C25.7182 19.987 25.8617 19.9966 25.9941 20.0451L39.5014 25.2491C39.635 25.3027 39.75 25.3943 39.8324 25.5126C39.9148 25.6308 39.9609 25.7706 39.9651 25.9147C39.9693 26.0588 39.9314 26.2011 39.8561 26.3239C39.7808 26.4468 39.6713 26.545 39.541 26.6064Z" fill="#FD4208"/>
</g>
<defs>
<filter id="filter0_d_1416_137360" x="0" y="0" width="172" height="109" filterUnits="userSpaceOnUse" color-interpolation-filters="sRGB">
<feFlood flood-opacity="0" result="BackgroundImageFix"/>
<feColorMatrix in="SourceAlpha" type="matrix" values="0 0 0 0 0 0 0 0 0 0 0 0 0 0 0 0 0 0 127 0" result="hardAlpha"/>
<feOffset dy="5"/>
<feGaussianBlur stdDeviation="12.5"/>
<feComposite in2="hardAlpha" operator="out"/>
<feColorMatrix type="matrix" values="0 0 0 0 0 0 0 0 0 0 0 0 0 0 0 0 0 0 0.2 0"/>
<feBlend mode="normal" in2="BackgroundImageFix" result="effect1_dropShadow_1416_137360"/>
<feBlend mode="normal" in="SourceGraphic" in2="effect1_dropShadow_1416_137360" result="shape"/>
</filter>
</defs>
</svg>
