<?xml version="1.0" encoding="UTF-8"?>
<!DOCTYPE svg PUBLIC "-//W3C//DTD SVG 1.1//EN" "http://www.w3.org/Graphics/SVG/1.1/DTD/svg11.dtd">
<!-- Creator: CorelDRAW -->
<svg xmlns="http://www.w3.org/2000/svg" xml:space="preserve" width="0.946504in" height="0.197528in" version="1.1" style="shape-rendering:geometricPrecision; text-rendering:geometricPrecision; image-rendering:optimizeQuality; fill-rule:evenodd; clip-rule:evenodd"
viewBox="0 0 946.5 197.53"
 xmlns:xlink="http://www.w3.org/1999/xlink"
 xmlns:xodm="http://www.corel.com/coreldraw/odm/2003">
 <defs>
  <style type="text/css">
   <![CDATA[
    .fil0 {fill:#0777AB}
    .fil1 {fill:#0777AB;fill-rule:nonzero}
   ]]>
  </style>
 </defs>
 <g id="Layer_x0020_1">
  <metadata id="CorelCorpID_0Corel-Layer"/>
  <g id="_3003542943280">
   <g>
    <path class="fil0" d="M66.46 111.29c5.59,-2.06 3.42,-20.04 2.68,-25.72 -8.33,-0.31 -22.18,1.69 -29.13,-1.35 -6.66,-2.91 -8.78,-15.97 -4.13,-22.08 10.08,-13.23 45.63,5.77 46.09,-16.74 0.37,-18.64 -18.71,-13.31 -31.84,-13.31 -5.57,0.35 -11.58,0.52 -17.09,0l-4.53 0c-20.92,0 -20.88,-31.67 0,-31.67 18.73,0 43.4,0.57 68.13,0.01 60.36,-1.36 109.14,-1.28 133.87,28.04 42.24,36.54 40.72,105.02 -0.04,141.61 -27.07,24.3 -60.28,31.34 -93.76,21.23l1.35 -36.51 0.47 0.01 0.7 0.32 0.03 0.01 0.37 0.16 0.07 0.03 1.04 0.44 0.37 0.15 0.37 0.15 0.5 0.2 0.7 0.26 0.61 0.23 0.07 0.02 0.38 0.13 0.38 0.13 0.38 0.13 0.39 0.13 0.67 0.22 0.62 0.19 0.83 0.25 0.55 0.15 0.91 0.25 0.55 0.14 0.95 0.23 0.48 0.11c0.37,0.09 0.75,0.17 1.13,0.24l0.3 0.06 1.19 0.23 0.13 0.02 0.02 0.01 0.16 0.02c0.41,0.07 0.81,0.14 1.22,0.2l0.28 0.04 1.29 0.18 0.14 0.02c0.45,0.06 0.91,0.11 1.37,0.16l0.23 0.02c0.47,0.05 0.94,0.09 1.42,0.13l0 0 0.05 0c0.47,0.04 0.95,0.06 1.42,0.09l0.15 0.01c0.46,0.02 0.92,0.04 1.38,0.05l0.13 0 0.07 0c0.5,0.02 1,0.02 1.51,0.02 33.76,0 61.12,-27.36 61.12,-61.12 0,-33.76 -27.37,-61.12 -61.12,-61.12 -0.53,0 -1.05,0.01 -1.57,0.02l-0.03 0c-0.52,0.01 -1.03,0.04 -1.54,0.06 -31.83,1.56 -56.34,26.73 -57.89,57.9l0 0.01c-0.03,0.52 -0.05,1.04 -0.06,1.56l0 0c-0.58,24.55 1.26,48.63 0.53,74.11 -10.4,-2.43 -21.39,-22.17 -25.72,-31.45 -3.31,-0.07 -6.67,0.1 -9.84,0.08l-4.26 0c-7.87,0 -14.31,-6.44 -14.31,-14.31l0 0c0,-5.42 4.04,-12.27 9.57,-13.5 2.3,-0.81 5.05,-0.87 7.54,-1.31zm-60.37 -28.22c3.05,2.02 6.55,2.85 10.7,2.45 16.29,-1.55 16.32,-26.91 -0.08,-28.08 -17.04,-1 -21.9,17.27 -10.63,25.63z"/>
    <circle class="fil0" cx="164.82" cy="98.87" r="27.46"/>
   </g>
   <path class="fil1" d="M324.93 160.31l-37.65 0 0 -153.74 37.65 0 0 153.74zm-16.36 -31.64l80.48 0 -0.12 31.64 -80.24 0 -0.12 -31.64zm100.44 31.64l0 -153.74 36.69 0 0.12 153.74 -36.81 0zm10.83 0l0.12 -31.4 96.6 0.12 0.12 31.28 -96.84 0zm10.71 -63.04l0 -30.07 83.13 0.12 0.12 30.07 -83.24 -0.12zm-10.71 -59.67l0 -31.04 95.76 0 0 31.04 -95.76 0zm109.35 122.7l42.22 -83.96 0 7.94 -40.66 -77.71 39.94 0 27.07 54.61 2.04 0 27.07 -54.61 39.94 0 -40.78 77.71 0 -7.94 42.22 83.96 -40.78 0 -27.67 -58.58 -2.04 0 -27.79 58.58 -40.78 0zm217.5 3.73c-21.98,0 -38.26,-5.33 -48.76,-15.96 -10.54,-10.63 -15.84,-26.19 -15.84,-46.72l0 -94.79 37.78 0 0 95.52c0,9.94 2.17,17.48 6.45,22.54 4.25,5.09 11.07,7.66 20.37,7.66 9.38,0 16.2,-2.57 20.45,-7.66 4.25,-5.06 6.37,-12.59 6.37,-22.54l0 -95.52 37.78 0 0 94.79c0,20.53 -5.26,36.09 -15.68,46.72 -10.46,10.63 -26.78,15.96 -48.92,15.96zm139.06 -0.48c-7.14,0 -13.8,-0.44 -20.01,-1.36 -6.26,-0.92 -11.91,-2.17 -16.96,-3.65 -5.13,-1.44 -9.58,-3.01 -13.43,-4.61l-3.25 -34.65c6.33,2.97 13.83,5.73 22.5,8.22 8.66,2.53 17.84,3.81 27.55,3.81 9.38,0 16.04,-1.2 20.05,-3.57 3.93,-2.33 5.94,-6.06 5.94,-11.11l0 -0.84c0,-3.37 -0.88,-6.13 -2.69,-8.26 -1.84,-2.13 -4.85,-4.09 -9.02,-5.89 -4.25,-1.81 -9.91,-3.73 -17.04,-5.81 -10.75,-3.21 -19.73,-6.78 -26.87,-10.71 -7.18,-3.93 -12.55,-8.86 -16.08,-14.76 -3.53,-5.89 -5.3,-13.35 -5.3,-22.41l0 -1.57c0,-13.95 4.77,-24.62 14.28,-32 9.46,-7.38 23.46,-11.07 41.91,-11.07 11.07,0 20.65,0.96 28.71,2.89 8.06,1.93 14.88,4.21 20.49,6.86l3.25 32.24c-6.18,-2.96 -13.15,-5.49 -20.97,-7.54 -7.82,-2.01 -16.2,-3.05 -25.1,-3.05 -6.26,0 -11.15,0.52 -14.72,1.56 -3.57,1.04 -6.09,2.52 -7.54,4.49 -1.44,1.96 -2.17,4.37 -2.17,7.18l0 0.48c0,2.89 0.84,5.41 2.49,7.58 1.64,2.17 4.61,4.25 8.9,6.26 4.25,2 10.39,4.17 18.32,6.5 10.67,3.13 19.53,6.45 26.55,10.02 7.02,3.61 12.27,8.22 15.76,13.83 3.49,5.65 5.21,13.19 5.21,22.57l0 1.93c0,15.48 -5.01,27.11 -15.04,34.81 -10.03,7.74 -25.26,11.63 -45.71,11.63z"/>
   <path class="fil1" d="M297.23 197.16l0 -21.17 2.1 0 0 21.17 -2.1 0zm-6.59 -19.7l0.02 -1.78 15.25 0 0 1.77 -15.26 0.02zm70.8 19.7l0 -21.49 2.08 0 -0.02 21.49 -2.07 0zm0.64 0l0 -1.76 12.31 -0.02 0 1.78 -12.31 0zm0.56 -10.09l-0.02 -1.77 11.43 -0.02 -0.02 1.76 -11.4 0.02zm-0.57 -9.63l-0.02 -1.77 12.24 0 0 1.77 -12.22 0zm75.17 20.09c-2.57,0 -4.5,-0.74 -5.77,-2.2 -1.28,-1.46 -1.93,-3.53 -1.93,-6.19l0 -5.48c0,-2.67 0.64,-4.72 1.91,-6.18 1.26,-1.45 3.17,-2.18 5.7,-2.18 0.86,0 1.65,0.09 2.35,0.26 0.7,0.18 1.33,0.4 1.87,0.67 0.55,0.27 1,0.54 1.37,0.82l0.2 1.98c-0.67,-0.5 -1.46,-0.94 -2.37,-1.32 -0.91,-0.37 -1.97,-0.56 -3.19,-0.56 -1.89,0 -3.31,0.57 -4.28,1.7 -0.97,1.13 -1.46,2.75 -1.46,4.84l0 5.38c0,2.08 0.5,3.7 1.48,4.84 0.98,1.14 2.44,1.71 4.39,1.71 1.21,0 2.28,-0.19 3.19,-0.56 0.92,-0.37 1.72,-0.82 2.41,-1.34l-0.19 2.02c-0.37,0.29 -0.83,0.57 -1.4,0.84 -0.56,0.27 -1.2,0.49 -1.91,0.67 -0.72,0.18 -1.52,0.27 -2.39,0.27zm63.85 -0.37l-2.1 0 0 -21.49 2.12 0 -0.02 21.49zm13.02 0l-2.1 0 0 -21.49 2.12 0 -0.02 21.49zm-13.91 -12l12.68 0.02 0.02 1.78 -12.69 -0.02 0 -1.78zm74.26 -9.48l9.69 19.28 0.22 0 -0.08 -9.48 0 -9.8 2.04 0 0 21.49 -3.2 0 -9.73 -19.4 -0.22 0 0.08 10.02 0 9.38 -2.05 0 0 -21.49 3.26 0zm76.11 21.86c-2.61,0 -4.6,-0.74 -5.96,-2.2 -1.36,-1.47 -2.04,-3.56 -2.04,-6.29l0 -5.26c0,-2.71 0.68,-4.8 2.04,-6.27 1.36,-1.47 3.35,-2.2 5.96,-2.2 2.6,0 4.58,0.74 5.95,2.2 1.37,1.47 2.05,3.56 2.05,6.27l0 5.26c0,2.72 -0.68,4.82 -2.05,6.29 -1.37,1.47 -3.35,2.2 -5.95,2.2zm0 -1.77c1.94,0 3.41,-0.58 4.4,-1.74 0.99,-1.16 1.48,-2.8 1.48,-4.92l0 -5.4c0,-2.13 -0.49,-3.77 -1.48,-4.92 -0.99,-1.15 -2.46,-1.72 -4.4,-1.72 -1.94,0 -3.41,0.58 -4.39,1.72 -0.99,1.15 -1.49,2.79 -1.49,4.92l0 5.4c0,2.12 0.5,3.76 1.49,4.92 0.99,1.16 2.45,1.74 4.39,1.74zm66.35 1.4l-2.1 0 0 -21.49 2.12 0 -0.02 21.49zm-1.01 -1.8l11.4 0 0 1.8 -11.4 0 0 -1.8zm73.06 2.17c-2.61,0 -4.6,-0.74 -5.96,-2.2 -1.36,-1.47 -2.04,-3.56 -2.04,-6.29l0 -5.26c0,-2.71 0.68,-4.8 2.04,-6.27 1.36,-1.47 3.35,-2.2 5.96,-2.2 2.6,0 4.59,0.74 5.95,2.2 1.37,1.47 2.05,3.56 2.05,6.27l0 5.26c0,2.72 -0.68,4.82 -2.05,6.29 -1.37,1.47 -3.35,2.2 -5.95,2.2zm0 -1.77c1.94,0 3.41,-0.58 4.4,-1.74 0.99,-1.16 1.48,-2.8 1.48,-4.92l0 -5.4c0,-2.13 -0.49,-3.77 -1.48,-4.92 -0.99,-1.15 -2.46,-1.72 -4.4,-1.72 -1.94,0 -3.4,0.58 -4.39,1.72 -0.99,1.15 -1.49,2.79 -1.49,4.92l0 5.4c0,2.12 0.5,3.76 1.49,4.92 0.99,1.16 2.46,1.74 4.39,1.74zm70.75 1.77c-1.61,0 -2.95,-0.33 -4.04,-0.97 -1.09,-0.64 -1.92,-1.58 -2.46,-2.81 -0.55,-1.22 -0.82,-2.72 -0.82,-4.48l0 -5.35c0,-2.77 0.69,-4.9 2.08,-6.39 1.38,-1.49 3.41,-2.24 6.09,-2.24 1.01,0 1.92,0.09 2.74,0.28 0.81,0.19 1.53,0.42 2.15,0.7 0.62,0.28 1.15,0.57 1.59,0.87l0.2 1.92c-0.75,-0.52 -1.65,-0.97 -2.7,-1.36 -1.05,-0.39 -2.27,-0.59 -3.66,-0.59 -2.13,0 -3.72,0.59 -4.78,1.77 -1.06,1.18 -1.59,2.87 -1.59,5.08l0 5.3c0,2.06 0.49,3.65 1.46,4.78 0.98,1.12 2.43,1.68 4.35,1.68 1,0 1.86,-0.18 2.57,-0.52 0.72,-0.34 1.3,-0.8 1.75,-1.37 0.45,-0.57 0.77,-1.2 0.96,-1.9l0 -5.63 0.39 0.79 -5.38 0 0 -1.75 7.04 0 0 8.09 -2.02 -0.04c-0.18,0.72 -0.5,1.4 -0.96,2.02 -0.46,0.63 -1.09,1.15 -1.9,1.53 -0.81,0.39 -1.83,0.58 -3.06,0.58zm6 -4.81l1.93 0 0 4.44 -2.05 0 0.12 -4.44zm63.42 -2.25l-7.37 -14.8 2.22 0 4.27 8.69 1.69 3.6 0.2 0 1.68 -3.6 4.25 -8.69 2.24 0 -7.36 14.8 -1.81 0zm-0.12 6.69l0 -8.69 2.05 0 0 8.69 -2.05 0z"/>
  </g>
 </g>
</svg>
