<svg width="141" height="32" viewBox="0 0 141 32" fill="none" xmlns="http://www.w3.org/2000/svg">
<g clip-path="url(#clip0_302_1212)">
<path fill-rule="evenodd" clip-rule="evenodd" d="M9.8915 16.5634C10.723 16.2573 10.4007 13.5801 10.2906 12.7355C9.05096 12.689 6.98901 12.986 5.95551 12.5344C4.96444 12.101 4.64823 10.1583 5.34127 9.24704C6.8405 7.27904 12.1323 10.1058 12.2 6.75673C12.2555 3.98255 9.41567 4.77662 7.46182 4.77662C6.6334 4.82814 5.7373 4.85441 4.91696 4.77662H4.24311C1.12948 4.77662 1.13554 0.0637313 4.24311 0.0637313C7.03144 0.0637313 10.7027 0.148594 14.3842 0.0657518C23.3684 -0.136301 30.6282 -0.123167 34.3086 4.23815C40.5955 9.67539 40.3692 19.868 34.3025 25.3143C30.2736 28.932 25.3314 29.9787 20.3477 28.4744L20.5478 23.0402L20.6185 23.0412L20.7236 23.0887L20.7276 23.0907L20.7822 23.1149L20.7933 23.119L20.9478 23.1847L21.0034 23.2069L21.059 23.2291L21.1327 23.2574L21.2378 23.2968L21.3297 23.3311L21.3398 23.3352L21.3964 23.3544L21.453 23.3746L21.5095 23.3938L21.5661 23.413L21.6661 23.4453L21.7591 23.4736L21.8823 23.51L21.9642 23.5332L22.0995 23.5696L22.1814 23.5908L22.3228 23.6251L22.3935 23.6413C22.4491 23.6544 22.5057 23.6665 22.5612 23.6777L22.6067 23.6868L22.7825 23.7211L22.8007 23.7241L22.8027 23.7251L22.8269 23.7292C22.8875 23.7393 22.9482 23.7504 23.0088 23.7595L23.0512 23.7656L23.2432 23.7928L23.2644 23.7959C23.3321 23.805 23.3998 23.812 23.4674 23.8191L23.5018 23.8231C23.5715 23.8302 23.6422 23.8363 23.7129 23.8413L23.721 23.8423C23.7917 23.8474 23.8625 23.8514 23.9332 23.8555L23.9554 23.8565C24.0231 23.8605 24.0918 23.8625 24.1605 23.8646L24.1787 23.8656H24.1888C24.2635 23.8676 24.3383 23.8686 24.4141 23.8686C29.4381 23.8686 33.5115 19.7962 33.5115 14.7722C33.5115 9.74813 29.4391 5.67575 24.4141 5.67575C24.3363 5.67575 24.2575 5.67676 24.1797 5.67878H24.1756C24.0989 5.6808 24.0231 5.68383 23.9473 5.68787C19.2082 5.92024 15.5621 9.6663 15.3308 14.3044V14.3064C15.3277 14.3832 15.3237 14.461 15.3217 14.5378V14.5388C15.2348 18.1919 15.5096 21.7763 15.4015 25.5679C13.8538 25.2062 12.2171 22.2683 11.5726 20.8873C11.0806 20.8772 10.5805 20.9025 10.1087 20.8994H9.47426C8.30236 20.8994 7.34463 19.9407 7.34463 18.7698C7.34463 17.9636 7.94573 16.9442 8.7691 16.7614C9.11057 16.6402 9.52074 16.6321 9.89049 16.5654L9.8915 16.5634ZM0.90722 12.3627C1.36083 12.6627 1.88112 12.786 2.50041 12.7274C4.92504 12.4971 4.92908 8.72271 2.48828 8.54793C-0.0484903 8.39841 -0.77184 11.118 0.90722 12.3627Z" fill="#0777AB"/>
<path d="M24.5313 18.8011C26.7882 18.8011 28.6178 16.9715 28.6178 14.7146C28.6178 12.4577 26.7882 10.6281 24.5313 10.6281C22.2743 10.6281 20.4447 12.4577 20.4447 14.7146C20.4447 16.9715 22.2743 18.8011 24.5313 18.8011Z" fill="#0777AB"/>
<path d="M48.3604 23.8595H42.7564V0.978019H48.3604V23.8595ZM45.9256 19.1507H57.9033L57.8851 23.8595H45.9428L45.9246 19.1507H45.9256ZM60.8755 23.8595V0.978019H66.337L66.3552 23.8595H60.8765H60.8755ZM62.4869 23.8595L62.5051 19.186L76.8822 19.2042L76.9003 23.8595H62.4879H62.4869ZM64.0801 14.4772V10.0007L76.4518 10.0189L76.47 14.4954L64.0801 14.4772ZM62.4869 5.59594V0.977009H76.7387V5.59594H62.4869ZM78.7612 23.8585L85.0461 11.3615V12.5435L78.9946 0.977009H84.939L88.9669 9.1056H89.272L93.3 0.977009H99.2444L93.1747 12.5435V11.3615L99.4585 23.8585H93.3889L89.271 15.1389H88.9659L84.8299 23.8585H78.7602H78.7612ZM111.132 24.4131C107.861 24.4131 105.438 23.6191 103.874 22.038C102.304 20.4559 101.517 18.1404 101.517 15.0854V0.977009H107.14V15.1924C107.14 16.6725 107.462 17.7939 108.1 18.5465C108.733 19.3042 109.747 19.6861 111.132 19.6861C112.528 19.6861 113.543 19.3042 114.176 18.5465C114.809 17.7949 115.125 16.6725 115.125 15.1924V0.977009H120.747V15.0854C120.747 18.1404 119.965 20.4569 118.413 22.038C116.855 23.6191 114.427 24.4131 111.132 24.4131ZM131.829 24.3414C130.767 24.3414 129.777 24.2757 128.851 24.1383C127.92 24.0009 127.078 23.8161 126.327 23.5948C125.563 23.3796 124.9 23.1473 124.327 22.9088L123.844 17.7525C124.787 18.1939 125.903 18.6061 127.192 18.9759C128.481 19.3517 129.848 19.5426 131.292 19.5426C132.688 19.5426 133.679 19.3638 134.276 19.0112C134.861 18.6647 135.159 18.1101 135.159 17.3585V17.2332C135.159 16.7321 135.028 16.3199 134.759 16.0037C134.484 15.6875 134.037 15.3955 133.417 15.1268C132.784 14.858 131.943 14.5721 130.88 14.261C129.281 13.7831 127.944 13.2527 126.881 12.6678C125.812 12.0828 125.013 11.3484 124.488 10.4715C123.963 9.59457 123.7 8.48429 123.7 7.13558V6.90322C123.7 4.82612 124.41 3.23899 125.824 2.14083C127.233 1.04268 129.316 0.494102 132.061 0.494102C133.708 0.494102 135.134 0.63756 136.334 0.923465C137.533 1.21038 138.549 1.54983 139.384 1.94383L139.867 6.74158C138.948 6.30009 137.909 5.92428 136.745 5.62019C135.582 5.32115 134.335 5.16658 133.009 5.16658C132.078 5.16658 131.351 5.24437 130.819 5.39894C130.288 5.55351 129.912 5.77476 129.697 6.06672C129.482 6.3597 129.374 6.71733 129.374 7.13558V7.20731C129.374 7.63667 129.5 8.0135 129.744 8.33578C129.989 8.65805 130.43 8.9682 131.07 9.26623C131.702 9.56426 132.615 9.88653 133.797 10.2331C135.385 10.6988 136.704 11.1938 137.749 11.7252C138.793 12.2627 139.575 12.9486 140.094 13.7841C140.614 14.6257 140.87 15.7481 140.87 17.1443V17.4312C140.87 19.7346 140.125 21.4662 138.633 22.6118C137.14 23.7635 134.872 24.3424 131.829 24.3424V24.3414Z" fill="#0777AB"/>
<path d="M44.0041 31.2031V26.8721H42.4614V25.9912H46.5954V26.8721H45.0598V31.2031H44.0041ZM52.4297 31.2031V25.9922H56.2869V26.8731H53.4844V28.0309H56.0899V28.9118H53.4844V30.3242H56.3889V31.2051H52.4297V31.2031ZM65.7692 29.2816L66.7886 29.5948C66.632 30.1686 66.3714 30.5949 66.0077 30.8738C65.644 31.1516 65.1823 31.291 64.6236 31.291C63.9316 31.291 63.3628 31.0546 62.9163 30.5818C62.4707 30.109 62.2475 29.4624 62.2475 28.6411C62.2475 27.7743 62.4717 27.0994 62.9193 26.6195C63.3668 26.1397 63.9568 25.8992 64.6862 25.8992C65.3247 25.8992 65.842 26.0881 66.24 26.465C66.4774 26.6882 66.6542 27.0085 66.7734 27.4268L65.7329 27.6743C65.6713 27.4055 65.5419 27.1914 65.347 27.0348C65.15 26.8782 64.9125 26.8004 64.6337 26.8004C64.2468 26.8004 63.9326 26.9388 63.6921 27.2166C63.4507 27.4934 63.3305 27.942 63.3305 28.5633C63.3305 29.221 63.4497 29.6908 63.6861 29.9696C63.9235 30.2494 64.2316 30.3888 64.6115 30.3888C64.8913 30.3888 65.1328 30.2999 65.3338 30.1221C65.5349 29.9433 65.6803 29.6645 65.7682 29.2826L65.7692 29.2816ZM72.8441 31.2031V25.9922H73.8999V28.044H75.9517V25.9922H77.0074V31.2031H75.9517V28.925H73.8999V31.2031H72.8441ZM83.2519 31.2031V25.9922H84.2732L86.418 29.4847V25.9922H87.3929V31.2031H86.3392L84.2268 27.7773V31.2031H83.2519ZM93.4414 28.629C93.4414 28.0976 93.5212 27.652 93.6798 27.2904C93.798 27.0247 93.9607 26.7862 94.1648 26.5751C94.3698 26.364 94.5941 26.2074 94.8376 26.1043C95.1629 25.9679 95.5377 25.8982 95.962 25.8982C96.7308 25.8982 97.3451 26.1366 97.8068 26.6135C98.2674 27.0913 98.4988 27.7551 98.4988 28.6057C98.4988 29.4493 98.2695 30.109 97.8118 30.5838C97.3542 31.0607 96.7419 31.2981 95.9762 31.2981C95.2013 31.2981 94.584 31.0617 94.1264 30.5879C93.6687 30.1151 93.4394 29.4624 93.4394 28.63L93.4414 28.629ZM94.5254 28.5936C94.5254 29.1846 94.6628 29.6322 94.9356 29.9373C95.2084 30.2424 95.5559 30.3949 95.9751 30.3949C96.3954 30.3949 96.7409 30.2434 97.0107 29.9413C97.2794 29.6382 97.4148 29.1846 97.4148 28.5795C97.4148 27.9814 97.2844 27.5348 97.0208 27.2419C96.7591 26.9469 96.4106 26.8004 95.9751 26.8004C95.5407 26.8004 95.1902 26.9489 94.9245 27.2469C94.6588 27.545 94.5254 27.9945 94.5254 28.5946V28.5936ZM104.502 31.2031V26.0356H105.558V30.3222H108.17V31.2031H104.502ZM113.852 28.629C113.852 28.0976 113.932 27.652 114.09 27.2904C114.208 27.0247 114.371 26.7862 114.575 26.5751C114.78 26.364 115.004 26.2074 115.248 26.1043C115.573 25.9679 115.948 25.8982 116.372 25.8982C117.141 25.8982 117.755 26.1366 118.217 26.6135C118.678 27.0913 118.909 27.7551 118.909 28.6057C118.909 29.4493 118.68 30.109 118.222 30.5838C117.765 31.0607 117.152 31.2981 116.387 31.2981C115.612 31.2981 114.994 31.0617 114.537 30.5879C114.079 30.1151 113.85 29.4624 113.85 28.63L113.852 28.629ZM114.936 28.5936C114.936 29.1846 115.073 29.6322 115.346 29.9373C115.619 30.2424 115.966 30.3949 116.386 30.3949C116.806 30.3949 117.151 30.2434 117.421 29.9413C117.69 29.6382 117.825 29.1846 117.825 28.5795C117.825 27.9814 117.695 27.5348 117.431 27.2419C117.169 26.9469 116.821 26.8004 116.386 26.8004C115.951 26.8004 115.601 26.9489 115.335 27.2469C115.069 27.545 114.936 27.9945 114.936 28.5946V28.5936ZM127.306 29.2887V28.4077H129.57V30.4868C129.351 30.701 129.032 30.8899 128.614 31.0536C128.197 31.2163 127.773 31.2971 127.344 31.2971C126.799 31.2971 126.325 31.1829 125.919 30.9536C125.515 30.7243 125.211 30.3959 125.007 29.9696C124.803 29.5443 124.701 29.0795 124.701 28.5785C124.701 28.0349 124.815 27.552 125.041 27.1287C125.27 26.7064 125.602 26.3811 126.04 26.1558C126.374 25.9831 126.789 25.8962 127.286 25.8962C127.933 25.8962 128.439 26.0316 128.803 26.3033C129.165 26.5761 129.4 26.9509 129.504 27.4318L128.456 27.6288C128.383 27.3732 128.245 27.1701 128.043 27.0206C127.842 26.8721 127.589 26.7984 127.286 26.7984C126.828 26.7984 126.463 26.9438 126.192 27.2358C125.921 27.5288 125.786 27.9612 125.786 28.535C125.786 29.1553 125.922 29.619 126.197 29.9282C126.472 30.2373 126.832 30.3929 127.276 30.3929C127.495 30.3929 127.717 30.3494 127.937 30.2636C128.159 30.1777 128.348 30.0716 128.508 29.9484V29.2866H127.306V29.2887ZM137.064 31.2031V29.0098L135.153 25.9922H136.387L137.619 28.0551L138.818 25.9922H140.029L138.118 29.0169V31.2031H137.063H137.064Z" fill="#0777AB"/>
</g>
<defs>
<clipPath id="clip0_302_1212">
<rect width="140.872" height="31.2972" fill="white"/>
</clipPath>
</defs>
</svg>
