<svg width="20" height="20" viewBox="0 0 20 20" fill="none" xmlns="http://www.w3.org/2000/svg">
<path d="M19.8856 0.410879C19.876 0.331739 19.8402 0.258095 19.7839 0.201727C19.7276 0.145358 19.654 0.109519 19.5749 0.0999417C18.2256 -0.0644261 16.8593 -0.0258769 15.5214 0.214309C12.7611 0.687863 10.0322 2.18894 7.91649 4.23576C7.72114 4.42161 7.25507 4.86228 7.06722 5.04277C5.95331 6.33119 4.6694 8.03777 3.92334 9.48166C3.81548 9.70039 3.92191 9.86658 4.10548 10.0246C4.27655 10.1961 4.60476 10.521 5.02225 10.9388C6.61866 12.5399 8.36113 14.2833 9.96861 15.892L10.09 16.0135C10.259 16.1865 10.5004 16.1089 10.675 15.9849C11.7902 15.3618 12.8503 14.6449 13.8439 13.8419C17.8892 10.6714 20.6006 5.6189 19.8856 0.410879ZM15.2428 8.80296C13.4807 10.606 10.3211 9.29975 10.35 6.77472C10.3268 4.24648 13.47 2.94233 15.2428 4.74648C16.3632 5.86407 16.3632 7.68538 15.2428 8.80296ZM0.679458 10.4388C0.693743 10.4388 0.708029 10.4388 0.722314 10.4352L3.28085 10.1243C3.09049 9.76258 3.15656 9.32441 3.38085 8.98524C3.55942 8.65643 3.85191 8.15321 4.25869 7.53527C4.93368 6.48237 5.76581 5.47629 6.56401 4.53919L7.07793 4.04991C2.80121 4.00703 0.611959 7.76936 0.32982 10.0281C0.288749 10.2343 0.465889 10.4456 0.679458 10.4388ZM14.2935 14.3955C13.268 15.2258 12.1731 15.9665 11.0211 16.6096C10.6922 16.8355 10.2325 16.9148 9.86861 16.7168L9.5579 19.2773C9.52754 19.481 9.70254 19.6825 9.91146 19.6775C10.5854 19.5785 13.6232 18.9685 15.1821 16.0457C15.6707 15.1282 15.9571 13.8977 15.9421 12.9098C15.4194 13.4341 14.8691 13.9301 14.2935 14.3955ZM8.02006 14.9527C6.95686 13.8859 5.7326 12.6622 4.6869 11.6135L4.44405 12.1068C4.34445 12.3072 4.31017 12.5339 4.34605 12.7549C4.38193 12.9759 4.48615 13.1801 4.64404 13.3387L6.65687 15.3527C6.81494 15.5114 7.01901 15.6162 7.24003 15.6521C7.46106 15.688 7.68777 15.6533 7.88792 15.5528L8.38042 15.3098C8.26113 15.1911 8.14506 15.0728 8.02006 14.9527ZM4.68333 15.3276C2.21765 13.1321 0.0369672 17.4624 0.00125341 19.62C-0.0173177 19.8255 0.173394 20.0167 0.379819 19.9988C2.52979 19.9627 6.84651 17.7926 4.68333 15.3276Z" fill="#0385C3"/>
<path d="M13.2154 4.62012C10.379 4.6941 10.3615 8.84493 13.2154 8.92677C16.0707 8.84314 16.0521 4.69374 13.2154 4.62012Z" fill="#0385C3"/>
</svg>
