<svg width="201" height="71" viewBox="0 0 201 71" fill="none" xmlns="http://www.w3.org/2000/svg">
<path d="M193.069 70.502H7.88397C3.73582 70.502 0.476562 66.652 0.476562 61.752V9.25195C0.476562 4.35195 3.73582 0.501953 7.88397 0.501953H193.069C197.217 0.501953 200.477 4.35195 200.477 9.25195V61.752C200.477 66.652 197.217 70.502 193.069 70.502Z" fill="black"/>
<path d="M193.069 1.90195C196.477 1.90195 199.291 5.22695 199.291 9.25195V61.752C199.291 65.777 196.477 69.102 193.069 69.102H7.88397C4.47656 69.102 1.66175 65.777 1.66175 61.752V9.25195C1.66175 5.22695 4.47656 1.90195 7.88397 1.90195H193.069ZM193.069 0.501953H7.88397C3.73582 0.501953 0.476562 4.52695 0.476562 9.25195V61.752C0.476562 66.652 3.73582 70.502 7.88397 70.502H193.069C197.217 70.502 200.477 66.652 200.477 61.752V9.25195C200.477 4.52695 197.217 0.501953 193.069 0.501953Z" fill="#A6A6A6"/>
<path d="M70.6994 18.3512C70.6994 19.7512 70.4031 20.9762 69.6624 21.8512C68.7735 22.9012 67.7365 23.4262 66.4031 23.4262C65.0698 23.4262 64.0328 22.9012 63.1439 21.8512C62.255 20.8012 61.8105 19.5762 61.8105 18.0012C61.8105 16.4262 62.255 15.2012 63.1439 14.1512C64.0328 13.1012 65.0698 12.5762 66.4031 12.5762C66.9957 12.5762 67.5883 12.7512 68.1809 13.1012C68.7735 13.4512 69.218 13.8012 69.5142 14.3262L68.7735 15.2012C68.1809 14.3262 67.4402 13.9762 66.4031 13.9762C65.5142 13.9762 64.6254 14.3262 64.0328 15.2012C63.292 15.9012 62.9957 16.9512 62.9957 18.1762C62.9957 19.4012 63.292 20.4512 64.0328 21.1512C64.7735 21.8512 65.5142 22.3762 66.4031 22.3762C67.4402 22.3762 68.1809 22.0262 68.9217 21.1512C69.3661 20.6262 69.6624 19.9262 69.6624 19.0512H66.4031V17.6512H70.6994V18.3512ZM77.5142 13.9762H73.5142V17.3012H77.218V18.5262H73.5142V21.8512H77.5142V23.2512H72.3291V12.7512H77.5142V13.9762ZM82.4031 23.2512H81.218V13.9762H78.6994V12.7512H84.9217V13.9762H82.4031V23.2512ZM89.218 23.2512V12.7512H90.4031V23.2512H89.218ZM95.4402 23.2512H94.255V13.9762H91.7365V12.7512H97.8105V13.9762H95.292V23.2512H95.4402ZM109.514 21.8512C108.625 22.9012 107.588 23.4262 106.255 23.4262C104.922 23.4262 103.885 22.9012 102.996 21.8512C102.107 20.8012 101.662 19.5762 101.662 18.0012C101.662 16.4262 102.107 15.2012 102.996 14.1512C103.885 13.1012 104.922 12.5762 106.255 12.5762C107.588 12.5762 108.625 13.1012 109.514 14.1512C110.403 15.2012 110.848 16.4262 110.848 18.0012C110.848 19.5762 110.403 20.8012 109.514 21.8512ZM103.885 20.9762C104.477 21.6762 105.366 22.2012 106.255 22.2012C107.144 22.2012 108.033 21.8512 108.625 20.9762C109.218 20.2762 109.662 19.2262 109.662 18.0012C109.662 16.7762 109.366 15.7262 108.625 15.0262C108.033 14.3262 107.144 13.8012 106.255 13.8012C105.366 13.8012 104.477 14.1512 103.885 15.0262C103.292 15.7262 102.848 16.7762 102.848 18.0012C102.848 19.2262 103.144 20.2762 103.885 20.9762ZM112.477 23.2512V12.7512H113.811L118.107 20.9762V12.7512H119.292V23.2512H118.107L113.514 14.6762V23.2512H112.477Z" fill="white" stroke="white" stroke-width="1.18519" stroke-miterlimit="10"/>
<path d="M101.365 38.6532C97.8097 38.6532 94.9949 41.8032 94.9949 46.1782C94.9949 50.3782 97.8097 53.7032 101.365 53.7032C104.921 53.7032 107.736 50.5532 107.736 46.1782C107.736 41.6282 104.921 38.6532 101.365 38.6532ZM101.365 50.5532C99.4393 50.5532 97.8097 48.6282 97.8097 46.0032C97.8097 43.3782 99.4393 41.4532 101.365 41.4532C103.291 41.4532 104.921 43.2032 104.921 46.0032C104.921 48.6282 103.291 50.5532 101.365 50.5532ZM87.5875 38.6532C84.0319 38.6532 81.2171 41.8032 81.2171 46.1782C81.2171 50.3782 84.0319 53.7032 87.5875 53.7032C91.143 53.7032 93.9578 50.5532 93.9578 46.1782C93.9578 41.6282 91.143 38.6532 87.5875 38.6532ZM87.5875 50.5532C85.6615 50.5532 84.0319 48.6282 84.0319 46.0032C84.0319 43.3782 85.6615 41.4532 87.5875 41.4532C89.5134 41.4532 91.143 43.2032 91.143 46.0032C91.143 48.6282 89.5134 50.5532 87.5875 50.5532ZM71.143 40.9282V44.0782H77.5134C77.3652 45.8282 76.7726 47.2282 76.0319 48.1032C75.143 49.1532 73.6615 50.3782 71.143 50.3782C67.143 50.3782 64.1801 46.7032 64.1801 41.9782C64.1801 37.2532 67.2912 33.5782 71.143 33.5782C73.2171 33.5782 74.8467 34.6282 76.0319 35.8532L77.9578 33.5782C76.3282 31.8282 74.2541 30.4282 71.2912 30.4282C65.9578 30.4282 61.3652 35.6782 61.3652 41.9782C61.3652 48.2782 65.9578 53.5282 71.2912 53.5282C74.2541 53.5282 76.3282 52.4782 78.106 50.2032C79.8838 48.1032 80.4763 45.1282 80.4763 42.8532C80.4763 42.1532 80.4764 41.4532 80.3282 40.9282H71.143ZM138.402 43.3782C137.81 41.6282 136.328 38.6532 133.069 38.6532C129.81 38.6532 127.143 41.6282 127.143 46.1782C127.143 50.3782 129.81 53.7032 133.365 53.7032C136.18 53.7032 137.958 51.6032 138.55 50.3782L136.476 48.6282C135.736 49.8532 134.847 50.7282 133.365 50.7282C131.884 50.7282 130.995 50.0282 130.254 48.4532L138.699 44.2532L138.402 43.3782ZM129.81 45.8282C129.81 43.0282 131.736 41.4532 133.069 41.4532C134.106 41.4532 135.143 42.1532 135.439 43.0282L129.81 45.8282ZM122.847 53.0032H125.662V31.1282H122.847V53.0032ZM118.402 40.2282C117.662 39.3532 116.476 38.4782 114.995 38.4782C111.884 38.4782 108.921 41.8032 108.921 46.0032C108.921 50.2032 111.736 53.3532 114.995 53.3532C116.476 53.3532 117.662 52.4782 118.254 51.6032H118.402V52.6532C118.402 55.4532 117.069 57.0282 114.995 57.0282C113.365 57.0282 112.18 55.6282 111.884 54.4032L109.513 55.6282C110.254 57.5532 112.032 60.0032 115.143 60.0032C118.402 60.0032 121.069 57.7282 121.069 52.3032V39.0032H118.402V40.2282ZM115.143 50.5532C113.217 50.5532 111.587 48.6282 111.587 46.0032C111.587 43.3782 113.217 41.4532 115.143 41.4532C117.069 41.4532 118.55 43.3782 118.55 46.0032C118.55 48.6282 117.069 50.5532 115.143 50.5532ZM151.291 31.1282H144.625V53.0032H147.439V44.7782H151.291C154.402 44.7782 157.365 42.1532 157.365 37.9532C157.365 33.7532 154.402 31.1282 151.291 31.1282ZM151.439 41.6282H147.439V34.1032H151.439C153.513 34.1032 154.699 36.2032 154.699 37.7782C154.55 39.7032 153.365 41.6282 151.439 41.6282ZM168.476 38.4782C166.402 38.4782 164.328 39.5282 163.587 41.8032L166.106 43.0282C166.699 41.8032 167.587 41.4532 168.625 41.4532C170.106 41.4532 171.439 42.5032 171.587 44.2532V44.4282C171.143 44.0782 169.958 43.5532 168.773 43.5532C166.106 43.5532 163.439 45.3032 163.439 48.4532C163.439 51.4282 165.662 53.3532 168.032 53.3532C169.958 53.3532 170.847 52.3032 171.587 51.2532H171.736V53.0032H174.402V44.6032C174.106 40.7532 171.587 38.4782 168.476 38.4782ZM168.18 50.5532C167.291 50.5532 165.958 50.0282 165.958 48.6282C165.958 46.8782 167.587 46.3532 168.921 46.3532C170.106 46.3532 170.699 46.7032 171.439 47.0532C171.143 49.1532 169.662 50.5532 168.18 50.5532ZM183.736 39.0032L180.624 48.4532H180.476L177.217 39.0032H174.254L179.143 52.3032L176.328 59.6532H179.143L186.699 39.0032H183.736ZM158.847 53.0032H161.662V31.1282H158.847V53.0032Z" fill="white"/>
<path d="M15.8836 13.6284C15.4392 14.1534 15.291 15.0284 15.291 16.0784V54.7534C15.291 55.8034 15.5873 56.6784 16.0318 57.2034L16.1799 57.3784L34.5503 35.6784V35.3284L15.8836 13.6284Z" fill="url(#paint0_linear_240_268)"/>
<path d="M40.4745 43.0278L34.4004 35.8528V35.3278L40.4745 28.1528L40.6226 28.3278L47.8819 33.2278C49.9559 34.6278 49.9559 36.9028 47.8819 38.3028L40.4745 43.0278Z" fill="url(#paint1_linear_240_268)"/>
<path d="M40.6236 42.852L34.4013 35.502L15.8828 57.377C16.6236 58.252 17.6606 58.252 18.9939 57.552L40.6236 42.852Z" fill="url(#paint2_linear_240_268)"/>
<path d="M40.6236 28.1515L18.9939 13.6265C17.6606 12.7515 16.6236 12.9265 15.8828 13.8015L34.4013 35.5015L40.6236 28.1515Z" fill="url(#paint3_linear_240_268)"/>
<path opacity="0.2" d="M40.4754 42.6772L18.9939 57.0272C17.8087 57.9022 16.7717 57.7272 16.031 57.0272L15.8828 57.2022L16.031 57.3772C16.7717 58.0772 17.8087 58.2522 18.9939 57.3772L40.4754 42.6772Z" fill="black"/>
<path opacity="0.12" d="M15.8836 57.027C15.4392 56.502 15.291 55.627 15.291 54.577V54.752C15.291 55.802 15.5873 56.677 16.0318 57.202V57.027H15.8836ZM47.8836 37.777L40.4762 42.677L40.6244 42.852L47.8836 37.952C48.9207 37.252 49.3651 36.377 49.3651 35.502C49.3651 36.377 48.7725 37.077 47.8836 37.777Z" fill="black"/>
<path opacity="0.25" d="M18.9947 13.8022L47.8836 33.2272C48.7725 33.9272 49.3651 34.6272 49.3651 35.5022C49.3651 34.6272 48.9207 33.7522 47.8836 33.0522L18.9947 13.6272C16.9206 12.2272 15.291 13.2772 15.291 16.0772V16.2522C15.291 13.6272 16.9206 12.4022 18.9947 13.8022Z" fill="white"/>
<defs>
<linearGradient id="paint0_linear_240_268" x1="32.7725" y1="15.7459" x2="3.80533" y2="40.2669" gradientUnits="userSpaceOnUse">
<stop stop-color="#00A0FF"/>
<stop offset="0.007" stop-color="#00A1FF"/>
<stop offset="0.26" stop-color="#00BEFF"/>
<stop offset="0.512" stop-color="#00D2FF"/>
<stop offset="0.76" stop-color="#00DFFF"/>
<stop offset="1" stop-color="#00E3FF"/>
</linearGradient>
<linearGradient id="paint1_linear_240_268" x1="50.5989" y1="35.5046" x2="14.7515" y2="35.5046" gradientUnits="userSpaceOnUse">
<stop stop-color="#FFE000"/>
<stop offset="0.409" stop-color="#FFBD00"/>
<stop offset="0.775" stop-color="#FFA500"/>
<stop offset="1" stop-color="#FF9C00"/>
</linearGradient>
<linearGradient id="paint2_linear_240_268" x1="37.2561" y1="39.52" x2="-2.02414" y2="72.7731" gradientUnits="userSpaceOnUse">
<stop stop-color="#FF3A44"/>
<stop offset="1" stop-color="#C31162"/>
</linearGradient>
<linearGradient id="paint3_linear_240_268" x1="11.2858" y1="0.809539" x2="28.8271" y2="15.6593" gradientUnits="userSpaceOnUse">
<stop stop-color="#32A071"/>
<stop offset="0.069" stop-color="#2DA771"/>
<stop offset="0.476" stop-color="#15CF74"/>
<stop offset="0.801" stop-color="#06E775"/>
<stop offset="1" stop-color="#00F076"/>
</linearGradient>
</defs>
</svg>
