<svg width="40" height="40" viewBox="0 0 40 40" fill="none" xmlns="http://www.w3.org/2000/svg">
<mask id="mask0_279_15" style="mask-type:alpha" maskUnits="userSpaceOnUse" x="0" y="0" width="40" height="40">
<rect width="40" height="40" fill="#D9D9D9"/>
</mask>
<g mask="url(#mask0_279_15)">
<path d="M19.4554 14.9736C16.9941 14.9736 15.0005 17.2237 15.0005 20.0016C15.0005 22.7795 16.9941 25.0296 19.4554 25.0296C21.9167 25.0296 23.9103 22.7795 23.9103 20.0016C23.9042 17.2237 21.9105 14.9736 19.4554 14.9736ZM19.4554 18.3627C18.6555 18.3627 18.0033 19.0988 18.0033 20.0016C18.0033 20.4183 17.7079 20.7517 17.3387 20.7517C16.9695 20.7517 16.6742 20.4183 16.6742 20.0016C16.6742 18.2724 17.9233 16.8626 19.4554 16.8626C19.8246 16.8626 20.12 17.196 20.12 17.6126C20.12 18.0293 19.8185 18.3627 19.4554 18.3627Z" fill="#0777AB"/>
<path d="M34.617 18.8708C20.7845 0.91168 8.28122 15.1276 5.30306 19.0652C4.9031 19.593 4.89695 20.3709 5.29691 20.8987C18.9509 38.8855 31.3496 25.385 34.617 21.1556C35.1277 20.5028 35.1277 19.5305 34.617 18.8708ZM20.0523 27.142C16.5573 27.142 13.7268 23.9474 13.7268 20.0028C13.7268 16.0582 16.5573 12.8636 20.0523 12.8636C23.5473 12.8636 26.3778 16.0582 26.3778 20.0028C26.3778 23.9474 23.5412 27.142 20.0523 27.142Z" fill="#0777AB"/>
</g>
</svg>
