<svg width="61" height="60" viewBox="0 0 61 60" fill="none" xmlns="http://www.w3.org/2000/svg">
<g clip-path="url(#clip0_3442_228314)">
<rect x="17.6016" y="30.4844" width="43.2258" height="24.3548" rx="4.20996" fill="#1F8F43"/>
<path d="M35.0408 38.5965L32.3296 43.8185V46.7891H30.9858V43.8185L28.2628 38.5965H29.7598L31.6577 42.6162L33.5555 38.5965H35.0408ZM38.9245 46.8952C38.3116 46.8952 37.7575 46.7576 37.2624 46.4826C36.7673 46.1997 36.3783 45.8067 36.0954 45.3038C35.8125 44.793 35.6711 44.2036 35.6711 43.5356C35.6711 42.8755 35.8164 42.29 36.1072 41.7792C36.398 41.2684 36.7948 40.8755 37.2978 40.6004C37.8007 40.3254 38.3626 40.1879 38.9835 40.1879C39.6043 40.1879 40.1662 40.3254 40.6691 40.6004C41.1721 40.8755 41.5689 41.2684 41.8597 41.7792C42.1505 42.29 42.2959 42.8755 42.2959 43.5356C42.2959 44.1957 42.1465 44.7812 41.8479 45.292C41.5493 45.8028 41.1406 46.1997 40.622 46.4826C40.1112 46.7576 39.5453 46.8952 38.9245 46.8952ZM38.9245 45.7282C39.2703 45.7282 39.5925 45.6456 39.8911 45.4806C40.1976 45.3156 40.4452 45.068 40.6338 44.738C40.8224 44.4079 40.9167 44.0071 40.9167 43.5356C40.9167 43.0641 40.8263 42.6672 40.6455 42.345C40.4648 42.015 40.2251 41.7674 39.9265 41.6024C39.6279 41.4374 39.3057 41.3549 38.9599 41.3549C38.6141 41.3549 38.2919 41.4374 37.9933 41.6024C37.7025 41.7674 37.4707 42.015 37.2978 42.345C37.1249 42.6672 37.0385 43.0641 37.0385 43.5356C37.0385 44.235 37.2153 44.7773 37.5689 45.1623C37.9304 45.5395 38.3823 45.7282 38.9245 45.7282ZM49.5064 40.2939V46.7891H48.1626V46.0229C47.9504 46.29 47.6715 46.5022 47.3257 46.6594C46.9878 46.8087 46.6263 46.8834 46.2412 46.8834C45.7304 46.8834 45.2707 46.7773 44.862 46.5651C44.4612 46.3529 44.143 46.0386 43.9072 45.6221C43.6793 45.2056 43.5654 44.7026 43.5654 44.1132V40.2939H44.8974V43.9128C44.8974 44.4944 45.0428 44.9423 45.3335 45.2566C45.6243 45.5631 46.0212 45.7164 46.5241 45.7164C47.0271 45.7164 47.4239 45.5631 47.7147 45.2566C48.0133 44.9423 48.1626 44.4944 48.1626 43.9128V40.2939H49.5064Z" fill="white"/>
<path d="M12.9934 10.7246L8.39288 12.8194L6.302 17.4285C6.25157 17.5397 6.16945 17.6336 6.06596 17.6982C5.96247 17.7628 5.84222 17.7953 5.72033 17.7917C5.59844 17.7881 5.48034 17.7484 5.38088 17.6777C5.28141 17.607 5.20502 17.5085 5.1613 17.3944L0.787774 6.00022C0.747061 5.88849 0.739064 5.76743 0.764727 5.6513C0.790389 5.53517 0.848642 5.4288 0.932624 5.34473C1.01661 5.26066 1.12282 5.20238 1.23875 5.17676C1.35469 5.15114 1.47552 5.15924 1.58701 5.20012L12.96 9.58179C13.0725 9.62697 13.1694 9.70407 13.2387 9.80363C13.3081 9.90319 13.347 10.0209 13.3505 10.1422C13.354 10.2636 13.3221 10.3834 13.2587 10.4868C13.1953 10.5903 13.1031 10.6729 12.9934 10.7246Z" fill="#1F8F43"/>
</g>
<defs>
<clipPath id="clip0_3442_228314">
<rect width="60" height="60" fill="white" transform="translate(0.75)"/>
</clipPath>
</defs>
</svg>
